<?xml version="1.0" standalone="no"?>
<!DOCTYPE svg PUBLIC "-//W3C//DTD SVG 1.1//EN" "http://www.w3.org/Graphics/SVG/1.1/DTD/svg11.dtd" >
<svg xmlns="http://www.w3.org/2000/svg">
<metadata></metadata>
<defs>
<font id="din-bolditalicbold_italic" horiz-adv-x="1056" >
<font-face units-per-em="2048" ascent="1638" descent="-410" />
<missing-glyph horiz-adv-x="450" />
<glyph horiz-adv-x="2048" />
<glyph horiz-adv-x="2048" />
<glyph unicode="&#xd;" horiz-adv-x="2048" />
<glyph unicode=" "  horiz-adv-x="450" />
<glyph unicode="&#x09;" horiz-adv-x="450" />
<glyph unicode="&#xa0;" horiz-adv-x="450" />
<glyph unicode="!" horiz-adv-x="675" d="M139 0l54 272h268l-53 -272h-269zM264 455l135 1003h314l-258 -1003h-191z" />
<glyph unicode="&#x22;" horiz-adv-x="903" d="M233 1026l86 432h238l-86 -432h-238zM633 1026l88 432h237l-88 -432h-237z" />
<glyph unicode="#" horiz-adv-x="1363" d="M88 0l139 397h-137l47 234h172l84 237h-145l47 234h178l129 368h270l-129 -368h234l129 368h270l-129 -368h135l-47 -234h-168l-84 -237h144l-47 -234h-179l-139 -397h-270l139 397h-233l-140 -397h-270zM578 631h233l84 237h-233z" />
<glyph unicode="$" horiz-adv-x="1216" d="M-8 190l196 175q109 -130 299 -136l76 394l-47 12q-91 22 -156 59.5t-100.5 84.5t-51 96t-15.5 104q0 199 134 336t367 155l35 181h199l-35 -187q227 -19 352 -174l-190 -166q-83 101 -236 107l-69 -379l53 -14q178 -43 254 -130.5t76 -236.5q0 -99 -31.5 -179.5 t-82.5 -134t-120 -91t-139.5 -55.5t-145.5 -23l-43 -221h-198l43 225q-142 8 -241.5 54t-182.5 144zM461 1014q0 -103 149 -137l68 356q-93 -12 -155 -74t-62 -145zM633 227q102 15 164.5 72.5t62.5 136.5q0 76 -38.5 109.5t-121.5 52.5z" />
<glyph unicode="%" horiz-adv-x="1671" d="M193 934q0 30 6 65l34 191q54 280 328 280q101 0 171.5 -57t70.5 -168q0 -31 -6 -65l-35 -191q-27 -142 -111.5 -212t-216.5 -70q-101 0 -171 58t-70 169zM301 0l948 1458h205l-948 -1458h-205zM377 954q0 -84 82 -84q97 0 119 119l36 193q1 6 4 19t3 22q0 35 -19.5 59.5 t-64.5 24.5q-97 0 -119 -119l-37 -191q-4 -32 -4 -43zM952 215q0 31 6 66l37 190q54 281 326 281q101 0 171.5 -57.5t70.5 -168.5q0 -25 -7 -65l-34 -191q-27 -142 -111.5 -212t-216.5 -70q-101 0 -171.5 58t-70.5 169zM1137 236q0 -84 82 -84q97 0 118 118l37 193 q1 5 3.5 18.5t2.5 22.5q0 35 -19.5 59.5t-64.5 24.5q-96 0 -118 -119l-37 -190q-4 -32 -4 -43z" />
<glyph unicode="&#x26;" horiz-adv-x="1413" d="M86 350q0 74 18.5 138t47 111t76 92.5t92.5 77.5t110 71q-47 79 -68.5 133t-21.5 121q0 49 11.5 97t41 99.5t75 90.5t120 64t168.5 25q81 0 143 -22.5t96 -55t55 -76.5t27 -79.5t6 -71.5q0 -173 -202 -303l-119 -76l178 -288q86 89 123 250h244q-58 -277 -238 -451 l193 -297h-308l-80 125q-171 -137 -391 -137q-77 0 -145 19.5t-126 60.5t-92 113.5t-34 168.5zM342 387q0 -75 48 -123.5t124 -48.5q123 0 238 100l-213 344q-98 -58 -147.5 -122t-49.5 -150zM598 1096q0 -60 55 -140l66 41q60 37 89.5 73t29.5 85q0 47 -26 73.5t-71 26.5 q-70 0 -106.5 -48.5t-36.5 -110.5z" />
<glyph unicode="'" horiz-adv-x="503" d="M233 1026l86 432h240l-86 -432h-240z" />
<glyph unicode="(" horiz-adv-x="653" d="M94 156q0 47 21 157l174 873q12 57 20.5 90.5t27.5 81.5t46 86q61 86 207 207l143 -189q-94 -81 -129 -127q-47 -64 -65 -161l-174 -869q-17 -96 -17 -123q0 -90 98 -205l-192 -170q-94 115 -127 189.5t-33 159.5z" />
<glyph unicode=")" horiz-adv-x="653" d="M2 -4q94 81 129 127q48 65 66 162l174 868q16 90 16 123q0 90 -98 205l192 170q94 -115 127 -189t33 -159q0 -53 -20 -158l-175 -873q-12 -57 -20.5 -90.5t-27.5 -81.5t-46 -86q-61 -86 -207 -207z" />
<glyph unicode="*" horiz-adv-x="962" d="M199 1020l237 72l-192 155l116 131l179 -168l39 242l172 -33l-56 -241l228 88l59 -164l-238 -72l191 -156l-117 -131l-176 170l-41 -243l-172 32l57 242l-229 -88z" />
<glyph unicode="+" d="M84 449l47 237h311l68 336h238l-68 -336h313l-47 -237h-313l-68 -336h-237l67 336h-311z" />
<glyph unicode="," horiz-adv-x="555" d="M-25 -338l127 629h275l-80 -404z" />
<glyph unicode="-" horiz-adv-x="829" d="M104 467l48 235h600l-47 -235h-601z" />
<glyph unicode="." horiz-adv-x="555" d="M29 0l61 303h287l-60 -303h-288z" />
<glyph unicode="/" horiz-adv-x="788" d="M-135 -152l907 1762h244l-905 -1762h-246z" />
<glyph unicode="0" d="M82 338q0 48 10 100l119 594q19 97 57 174t85.5 125.5t106 80.5t116.5 45t120 13q164 0 263.5 -97.5t99.5 -252.5q0 -48 -10 -100l-117 -594q-19 -97 -57 -174t-85.5 -125.5t-106.5 -80.5t-117 -45t-120 -13q-164 0 -264 97.5t-100 252.5zM334 356q0 -72 39.5 -106.5 t93.5 -34.5q74 0 131 46t80 157l121 612q8 46 8 72q0 72 -39.5 106.5t-93.5 34.5q-74 0 -131 -46t-80 -157l-119 -612q-10 -58 -10 -72z" />
<glyph unicode="1" d="M281 928l57 293l332 237h254l-291 -1458h-254l233 1167z" />
<glyph unicode="2" d="M6 0l47 227l631 641q68 69 95.5 117t27.5 111q0 70 -36.5 108.5t-102.5 38.5q-75 0 -131.5 -45t-79.5 -145h-256q36 207 163.5 312t329.5 105q172 0 270.5 -95t98.5 -267q0 -32 -4 -62.5t-14.5 -59.5t-19 -51.5t-27 -49t-28 -42t-33 -41t-31.5 -34.5t-33 -34l-29 -29 l-467 -478h536l-47 -227h-860z" />
<glyph unicode="3" d="M55 334q0 34 6 74h250q-4 -32 -4 -46q0 -65 42 -106t122 -41q95 0 161 77.5t66 182.5q0 74 -41 117t-122 43h-39l43 221h41q89 0 151 73.5t62 166.5q0 69 -37.5 108t-100.5 39q-71 0 -129.5 -47t-79.5 -131h-256q46 203 175 304t325 101q160 0 258.5 -98.5t98.5 -247.5 q0 -79 -22.5 -148.5t-73.5 -130.5t-128 -100q68 -39 98.5 -99.5t30.5 -160.5q0 -209 -139.5 -353t-343.5 -144q-191 0 -302.5 94t-111.5 252z" />
<glyph unicode="4" d="M-6 213l47 240l674 1005h282l-671 -1005h288l56 270h241l-53 -270h133l-49 -240h-129l-43 -213h-242l41 213h-575z" />
<glyph unicode="5" d="M92 328q0 42 4 73h244q-2 -14 -2 -41q0 -66 32.5 -105.5t102.5 -39.5q98 0 150.5 72.5t78.5 204.5q15 88 15 118q0 150 -131 150q-129 0 -197 -121h-229l164 819h786l-45 -227h-559l-64 -324q84 68 209 68q108 0 183.5 -48.5t109 -121.5t33.5 -162q0 -72 -14 -151 q-51 -258 -170 -377q-127 -127 -334 -127q-170 0 -268.5 95.5t-98.5 244.5z" />
<glyph unicode="6" d="M74 375q0 104 37.5 193.5t130.5 230.5l436 659h280l-415 -614q43 12 86 12q146 0 235.5 -103t89.5 -274q0 -213 -131 -352t-338 -139q-85 0 -155.5 23t-117 61t-78.5 89t-46 104.5t-14 109.5zM328 397q0 -86 42.5 -134t116.5 -48q97 0 155 76.5t58 179.5 q0 85 -43.5 132.5t-117.5 47.5q-99 0 -155 -77t-56 -177z" />
<glyph unicode="7" d="M160 0l682 1231h-369l-45 -223h-242l88 450h895l-45 -227l-684 -1231h-280z" />
<glyph unicode="8" d="M59 369q0 128 64 232.5t186 166.5q-106 94 -106 252q0 124 58 226t167 163t248 61q171 0 280 -102.5t109 -273.5q0 -116 -62.5 -214.5t-160.5 -146.5q121 -96 121 -268q0 -98 -33.5 -184t-95.5 -151.5t-157.5 -103.5t-213.5 -38q-84 0 -156 23t-128 68.5t-88 120 t-32 169.5zM315 389q0 -73 44.5 -123.5t119.5 -50.5q98 0 162 70.5t64 177.5q0 74 -43.5 124t-118.5 50q-98 0 -163 -71t-65 -177zM457 1012q0 -66 38 -110t107 -44q90 0 148.5 67t58.5 162q0 67 -38 111.5t-107 44.5q-90 0 -148.5 -68t-58.5 -163z" />
<glyph unicode="9" d="M184 0l416 614q-44 -12 -86 -12q-146 0 -236 103t-90 274q0 213 131 352t338 139q106 0 188 -34.5t129.5 -92t71 -123.5t23.5 -137q0 -104 -37.5 -193.5t-130.5 -230.5l-438 -659h-279zM442 987q0 -85 43.5 -132.5t118.5 -47.5q99 0 155 77t56 177q0 85 -44 133.5 t-118 48.5q-96 0 -153.5 -76.5t-57.5 -179.5z" />
<glyph unicode=":" horiz-adv-x="602" d="M78 0l61 303h289l-61 -303h-289zM186 555l62 303h287l-60 -303h-289z" />
<glyph unicode=";" horiz-adv-x="602" d="M16 -338l127 629h277l-80 -404zM186 555l62 303h289l-62 -303h-289z" />
<glyph unicode="&#x3c;" d="M90 492l45 217l873 381l-56 -283l-540 -223l454 -240l-51 -260z" />
<glyph unicode="=" d="M45 252l49 235h862l-49 -235h-862zM129 682l49 236h862l-47 -236h-864z" />
<glyph unicode="&#x3e;" d="M68 78l55 282l541 224l-455 239l53 260l723 -409l-45 -217z" />
<glyph unicode="?" horiz-adv-x="1017" d="M233 1073q24 135 95 226t170 131t225 40q89 0 165.5 -37.5t124.5 -113t48 -174.5t-38 -178t-114 -162l-182 -203q-46 -50 -57 -104l-11 -43h-253l14 63q25 123 112 215l181 193q92 99 92 192q0 53 -32.5 89t-88.5 36q-80 0 -130 -45t-65 -125h-256zM317 0l54 272h268 l-53 -272h-269z" />
<glyph unicode="@" horiz-adv-x="1478" d="M66 219q0 67 12 129l121 615q49 253 170 374q129 129 401 129h301q213 0 315 -114q84 -92 84 -244q0 -55 -18 -156l-190 -952h-232l19 94q-103 -106 -242 -106q-137 0 -212 79.5t-75 194.5q0 61 29 209q33 160 64 243t98 146q101 96 256 96q149 0 223 -104l20 109 q11 57 11 88q0 82 -43 131q-55 61 -174 61h-242q-73 0 -122.5 -15.5t-90.5 -51.5q-47 -40 -70 -90t-37 -123l-120 -605q-11 -50 -11 -90q0 -53 54 -116l-199 -173q-100 113 -100 242zM774 336q0 -59 29.5 -98t91.5 -39q91 0 140 64t79 208q16 75 16 137q0 60 -29 98.5 t-91 38.5q-91 0 -140 -64.5t-79 -209.5q-17 -80 -17 -135z" />
<glyph unicode="A" horiz-adv-x="1243" d="M-94 0l794 1458h215l215 -1458h-274l-31 266h-493l-137 -266h-289zM442 487h363l-70 562z" />
<glyph unicode="B" horiz-adv-x="1282" d="M57 0l293 1458h529q97 0 171.5 -27.5t118.5 -75.5t66 -107.5t22 -127.5q0 -114 -55 -215.5t-182 -165.5q69 -43 104 -102t35 -154q0 -144 -64.5 -254.5t-176 -169.5t-250.5 -59h-611zM377 240h282q104 0 166 65.5t62 165.5q0 67 -39.5 108.5t-114.5 41.5h-280zM500 860 h260q57 0 102 20t70 52.5t38 69t13 73.5q0 61 -34 102.5t-118 41.5h-258z" />
<glyph unicode="C" horiz-adv-x="1212" d="M109 401q0 99 45 328q48 247 89.5 366.5t131.5 209.5q84 84 189.5 124.5t215.5 40.5q109 0 195 -34.5t140 -95.5t82 -142.5t28 -177.5h-271q-2 96 -48.5 154.5t-139.5 58.5q-113 0 -197 -84q-44 -44 -76 -137t-69 -283q-43 -212 -43 -307q0 -92 54.5 -144.5t139.5 -52.5 q100 0 169.5 61t103.5 152h278q-72 -221 -222 -335.5t-347 -114.5q-204 0 -326 117.5t-122 295.5z" />
<glyph unicode="D" horiz-adv-x="1282" d="M57 0l293 1458h477q93 0 170 -24.5t135.5 -72.5t91.5 -127.5t33 -182.5q0 -80 -47 -316q-54 -275 -98 -389.5t-135 -202.5q-149 -143 -402 -143h-518zM377 238h205q131 0 213 79q45 44 75.5 130t69.5 288q45 229 45 293q0 96 -54.5 144.5t-150.5 48.5h-207z" />
<glyph unicode="E" horiz-adv-x="1183" d="M57 0l293 1458h910l-48 -237h-639l-73 -367h551l-47 -238h-551l-76 -378h651l-47 -238h-924z" />
<glyph unicode="F" horiz-adv-x="1146" d="M57 0l293 1458h910l-48 -237h-639l-75 -381h546l-47 -238h-548l-121 -602h-271z" />
<glyph unicode="G" horiz-adv-x="1261" d="M109 401q0 116 43 328q52 268 93.5 378t127.5 196q167 167 411 167q113 0 201.5 -37.5t142 -102t80.5 -144.5t27 -172h-270q-2 101 -52.5 160t-140.5 59q-115 0 -201 -86q-52 -52 -81 -137.5t-68 -280.5q-41 -196 -41 -307q0 -69 30.5 -115.5t73 -64t93.5 -17.5 q104 0 189.5 76.5t111.5 216.5l12 64h-256l43 225h524l-39 -209q-30 -161 -75 -262.5t-127 -183.5q-79 -79 -183.5 -121.5t-218.5 -42.5q-107 0 -194 34t-142 91.5t-84.5 131.5t-29.5 156z" />
<glyph unicode="H" horiz-adv-x="1333" d="M57 0l293 1458h271l-119 -602h469l119 602h270l-293 -1458h-270l125 618h-469l-125 -618h-271z" />
<glyph unicode="I" horiz-adv-x="593" d="M57 0l293 1458h271l-293 -1458h-271z" />
<glyph unicode="J" horiz-adv-x="993" d="M-61 145l194 166q67 -86 178 -86q85 0 159 58.5t101 193.5l197 981h270l-200 -997q-23 -113 -70 -200t-102 -137.5t-122.5 -82.5t-124 -42.5t-114.5 -10.5q-130 0 -216.5 38.5t-149.5 118.5z" />
<glyph unicode="K" horiz-adv-x="1302" d="M57 0l293 1458h268l-129 -635l613 635h336l-576 -608l334 -850h-295l-256 674l-231 -225l-88 -449h-269z" />
<glyph unicode="L" horiz-adv-x="1126" d="M57 0l293 1458h271l-244 -1220h635l-47 -238h-908z" />
<glyph unicode="M" horiz-adv-x="1576" d="M57 0l293 1458h254l207 -778l528 778h265l-293 -1458h-271l174 862l-366 -538h-182l-164 542l-174 -866h-271z" />
<glyph unicode="N" horiz-adv-x="1386" d="M57 0l293 1458h230l381 -913l182 913h270l-293 -1458h-229l-379 911l-184 -911h-271z" />
<glyph unicode="O" horiz-adv-x="1251" d="M109 401q0 90 45 328q47 242 90.5 364.5t132.5 211.5q80 80 188 122.5t217 42.5q201 0 321 -119t120 -294q0 -90 -45 -328q-47 -240 -91 -363t-133 -212q-80 -80 -189 -123t-218 -43q-101 0 -184.5 33t-138.5 89.5t-85 131t-30 159.5zM381 422q0 -92 54 -144.5t132 -52.5 q117 0 199 88q42 45 72 131.5t69 284.5q41 205 41 307q0 93 -53 145t-131 52q-117 0 -199 -88q-42 -45 -72 -131.5t-69 -284.5q-43 -215 -43 -307z" />
<glyph unicode="P" horiz-adv-x="1222" d="M57 0l293 1458h518q183 0 287.5 -106t104.5 -279q0 -99 -35.5 -189.5t-102 -162t-170.5 -114t-231 -42.5h-281l-112 -565h-271zM489 805h242q122 0 189 76t67 170q0 75 -39.5 121.5t-124.5 46.5h-250z" />
<glyph unicode="Q" horiz-adv-x="1251" d="M109 401q0 90 45 328q47 242 90.5 364.5t132.5 211.5q80 80 188 122.5t217 42.5q201 0 321 -119t120 -294q0 -90 -45 -328q-41 -214 -79 -330.5t-108 -203.5l101 -134l-162 -143l-107 141q-127 -71 -276 -71q-101 0 -184.5 33t-138.5 89.5t-85 131t-30 159.5zM381 422 q0 -92 54 -144.5t132 -52.5q57 0 107 29l-107 137l164 144l90 -117q42 84 86 311q41 205 41 307q0 93 -53 145t-131 52q-117 0 -199 -88q-42 -45 -72 -131.5t-69 -284.5q-43 -215 -43 -307z" />
<glyph unicode="R" horiz-adv-x="1280" d="M57 0l293 1458h512q107 0 186 -31.5t124 -87.5t66.5 -124t21.5 -148q0 -143 -88.5 -267t-251.5 -179l200 -621h-297l-170 590h-204l-121 -590h-271zM492 815h245q65 0 116 23.5t79.5 60t42.5 76t14 78.5q0 79 -44 122.5t-126 43.5h-246z" />
<glyph unicode="S" horiz-adv-x="1153" d="M-6 188l196 172q113 -133 320 -133q122 0 205.5 61t83.5 150q0 73 -38.5 108t-115.5 54l-121 31q-171 42 -251 133.5t-80 212.5q0 214 155 353.5t416 139.5q131 0 239.5 -44.5t178.5 -131.5l-191 -166q-47 56 -109 81.5t-149 25.5q-121 0 -195.5 -67.5t-74.5 -153.5 q0 -63 41 -94.5t114 -49.5l121 -28q179 -44 254.5 -132.5t75.5 -246.5q0 -119 -47.5 -212t-130 -149t-185.5 -85t-221 -29q-173 0 -286 46t-205 154z" />
<glyph unicode="T" horiz-adv-x="1114" d="M197 1219l47 239h995l-47 -239h-358l-244 -1219h-271l244 1219h-366z" />
<glyph unicode="U" horiz-adv-x="1300" d="M127 403q0 53 14 125l187 930h270l-190 -946q-11 -69 -11 -90q0 -82 48.5 -138.5t144.5 -56.5q117 0 194.5 77t106.5 222l186 932h271l-193 -958q-52 -256 -210.5 -384t-373.5 -128q-191 0 -317.5 113t-126.5 302z" />
<glyph unicode="V" horiz-adv-x="1130" d="M193 1458h266l98 -966l467 966h291l-744 -1458h-213z" />
<glyph unicode="W" horiz-adv-x="1732" d="M195 1458h278l33 -932l442 932h203l72 -932l393 932h287l-652 -1458h-227l-76 897l-442 -897h-225z" />
<glyph unicode="X" horiz-adv-x="1185" d="M-90 0l573 758l-270 700h301l162 -479l334 479h315l-541 -721l293 -737h-303l-180 518l-369 -518h-315z" />
<glyph unicode="Y" horiz-adv-x="1126" d="M182 1458h287l156 -604l376 604h299l-585 -870l-119 -588h-270l120 598z" />
<glyph unicode="Z" horiz-adv-x="1077" d="M-25 0l45 215l777 1004h-564l48 239h897l-43 -211l-783 -1007h594l-49 -240h-922z" />
<glyph unicode="[" horiz-adv-x="735" d="M20 -152l351 1762h491l-45 -228h-237l-263 -1306h258l-45 -228h-510z" />
<glyph unicode="\" horiz-adv-x="774" d="M211 1583h231l199 -1735h-229z" />
<glyph unicode="]" horiz-adv-x="735" d="M-45 -152l45 226h240l262 1310h-258l45 226h508l-351 -1762h-491z" />
<glyph unicode="^" horiz-adv-x="1189" d="M176 797l483 676h250l213 -676h-254l-127 405l-288 -405h-277z" />
<glyph unicode="_" d="M-176 -354l35 168h1059l-35 -168h-1059z" />
<glyph unicode="`" horiz-adv-x="972" d="M416 1573h262l51 -342h-162z" />
<glyph unicode="a" horiz-adv-x="1042" d="M23 270q0 156 96 252q114 111 311 111h254l14 63q7 31 7 56q0 55 -40 84.5t-118 29.5q-140 0 -230 -100l-131 170q69 71 161.5 107t234.5 36q56 0 108 -9t102 -30.5t87 -54.5t59.5 -85t22.5 -118q0 -41 -11 -94l-139 -688h-244l19 94q-104 -104 -258 -104 q-138 0 -221.5 78.5t-83.5 201.5zM272 295q0 -46 34.5 -73t101.5 -27q100 0 165 65q47 47 64 135l12 64h-194q-84 0 -133.5 -46t-49.5 -118z" />
<glyph unicode="b" horiz-adv-x="1091" d="M37 0l291 1458h254l-97 -483q89 104 248 104q129 0 211 -77.5t82 -231.5q0 -71 -31 -235q-32 -172 -68 -274.5t-104 -170.5q-102 -102 -272 -102q-175 0 -248 121l-20 -109h-246zM375 362q0 -147 129 -147q45 0 79.5 15.5t58.5 40.5t43 68t31 87.5t25 108.5 q23 126 23 170q0 147 -129 147q-56 0 -95.5 -21t-66.5 -66t-43.5 -97t-32.5 -133q-22 -121 -22 -173z" />
<glyph unicode="c" horiz-adv-x="937" d="M76 369q0 78 16 166q23 126 66.5 223t96 156.5t119 97.5t129.5 52.5t132 14.5q200 0 313 -147l-190 -168q-66 88 -148 88q-86 0 -151 -68q-84 -87 -113 -249q-14 -82 -14 -138q0 -86 39 -134t112 -48q97 0 187 90l141 -182q-145 -135 -352 -135q-162 0 -272.5 100.5 t-110.5 280.5z" />
<glyph unicode="d" horiz-adv-x="1091" d="M70 287q0 81 32 248q34 174 72.5 277.5t97.5 162.5q104 104 271 104t241 -114l99 493h254l-291 -1458h-246l23 102q-100 -114 -265 -114q-80 0 -139 27t-90 72.5t-45 95t-14 104.5zM334 362q0 -147 127 -147q45 0 79.5 15.5t58.5 40.5t43 68t31 87.5t25 108.5 q23 126 23 172q0 145 -127 145q-56 0 -95.5 -21t-66.5 -66t-43.5 -97t-32.5 -133q-22 -121 -22 -173z" />
<glyph unicode="e" horiz-adv-x="1073" d="M76 362q0 109 20.5 212t65 195t107 161t152.5 109t197 40q171 0 275 -104t104 -277q0 -92 -32 -241h-639q-9 -65 -9 -76q0 -81 46 -129.5t137 -48.5q140 0 254 108l133 -168q-165 -155 -416 -155q-58 0 -112.5 11.5t-106.5 39.5t-90.5 69.5t-62 107t-23.5 146.5zM358 627 h392q6 34 6 71q0 82 -41 127t-111 45q-180 0 -246 -243z" />
<glyph unicode="f" horiz-adv-x="665" d="M68 0l168 840h-105l39 194h104l31 148q28 142 115.5 217.5t232.5 75.5h150l-43 -215h-90q-97 0 -117 -105l-25 -121h189l-39 -194h-189l-167 -840h-254z" />
<glyph unicode="g" horiz-adv-x="1079" d="M-25 -258l177 154q22 -25 39 -39.5t55 -29.5t84 -15q103 0 170.5 62.5t89.5 168.5l22 109q-89 -107 -237 -107q-126 0 -210.5 78.5t-84.5 222.5q0 71 26 217q29 161 65 256t95 154q106 106 273 106t241 -121l21 109h246l-205 -1026q-44 -224 -181 -334t-331 -110 q-118 0 -203 34.5t-152 110.5zM342 414q0 -142 127 -142q95 0 145.5 70t79.5 221q19 105 19 148q0 67 -32 104t-95 37q-95 0 -146 -70t-80 -221q-18 -99 -18 -147z" />
<glyph unicode="h" horiz-adv-x="1114" d="M37 0l291 1458h254l-95 -475q107 96 263 96q51 0 98.5 -16.5t88.5 -50.5t66 -93t25 -135q0 -36 -14 -118l-133 -666h-254l129 649q8 46 8 70q0 65 -36.5 99t-88.5 34q-31 0 -61 -9t-62.5 -30t-58 -63.5t-37.5 -102.5l-129 -647h-254z" />
<glyph unicode="i" horiz-adv-x="536" d="M37 0l213 1067h254l-213 -1067h-254zM281 1243l41 211h262l-43 -211h-260z" />
<glyph unicode="j" horiz-adv-x="536" d="M-229 -399l43 215h92q46 0 75.5 28.5t38.5 79.5l230 1143h254l-232 -1165q-28 -142 -116.5 -221.5t-227.5 -79.5h-157zM281 1243l41 211h262l-43 -211h-260z" />
<glyph unicode="k" horiz-adv-x="1093" d="M37 0l291 1458h254l-164 -825l422 434h301l-447 -444l283 -623h-291l-184 465l-146 -135l-65 -330h-254z" />
<glyph unicode="l" horiz-adv-x="636" d="M84 231q0 49 8 88l227 1139h254l-227 -1136q-6 -27 -6 -46q0 -61 78 -61h104l-43 -215h-139q-113 0 -184.5 62t-71.5 169z" />
<glyph unicode="m" horiz-adv-x="1703" d="M37 0l213 1067h244l-21 -102q111 114 281 114q65 0 128 -33t103 -104q63 66 139.5 101.5t194.5 35.5q75 0 140.5 -30.5t111 -99.5t45.5 -165q0 -52 -12 -118l-134 -666h-253l129 649q8 46 8 70q0 65 -37.5 99t-89.5 34q-30 0 -60 -9t-62.5 -30t-57.5 -63.5t-37 -102.5 l-129 -647h-254l129 649q8 46 8 70q0 65 -36.5 99t-88.5 34q-31 0 -61 -9t-62.5 -30t-58 -63.5t-37.5 -102.5l-129 -647h-254z" />
<glyph unicode="n" horiz-adv-x="1114" d="M37 0l213 1067h244l-21 -102q111 114 281 114q49 0 96 -16.5t87.5 -50.5t65.5 -93t25 -135q0 -36 -14 -118l-133 -666h-254l129 649q8 46 8 70q0 65 -36.5 99t-88.5 34q-31 0 -61 -9t-62.5 -30t-58 -63.5t-37.5 -102.5l-129 -647h-254z" />
<glyph unicode="o" horiz-adv-x="1052" d="M76 342q0 58 22 193q30 161 74.5 256.5t116.5 164.5q126 123 327 123q51 0 100 -11.5t97 -38t84 -66t58 -100.5t22 -136q0 -63 -21 -192q-30 -162 -74 -258.5t-116 -165.5q-126 -123 -328 -123q-51 0 -100 11.5t-97 38.5t-84.5 66.5t-58.5 101t-22 136.5zM328 367 q0 -74 37 -113t98 -39q78 0 131 53q67 64 108 267q23 123 23 165q0 74 -36 113t-97 39q-80 0 -133 -53q-69 -66 -109 -264q-22 -117 -22 -168z" />
<glyph unicode="p" horiz-adv-x="1091" d="M-41 -391l291 1458h246l-23 -102q100 114 264 114q80 0 139 -26.5t90.5 -71.5t45.5 -94t14 -103q0 -89 -33 -249q-34 -175 -72.5 -279.5t-97.5 -163.5q-104 -104 -270 -104q-168 0 -242 114l-98 -493h-254zM375 362q0 -147 127 -147q45 0 79.5 15.5t58.5 40.5t43 68 t31 87.5t25 108.5q23 126 23 172q0 145 -127 145q-56 0 -95.5 -21t-66.5 -66t-43.5 -97t-32.5 -133q-22 -121 -22 -173z" />
<glyph unicode="q" horiz-adv-x="1091" d="M70 299q0 77 30 236q32 172 68 274t104 170q100 100 273 100t246 -121l22 109h246l-291 -1458h-254l94 485q-91 -106 -248 -106q-128 0 -209 78t-81 233zM332 362q0 -147 127 -147q45 0 79.5 15.5t58.5 40.5t43 68t31 87.5t25 108.5q23 126 23 170q0 147 -127 147 q-56 0 -95.5 -21t-66.5 -66t-43.5 -97t-32.5 -133q-22 -121 -22 -173z" />
<glyph unicode="r" horiz-adv-x="880" d="M37 0l213 1067h246l-23 -104q44 54 115.5 85t154.5 31q144 0 228 -100l-219 -195q-14 18 -24.5 28.5t-36.5 24t-56 13.5q-76 0 -136 -57t-79 -148l-129 -645h-254z" />
<glyph unicode="s" horiz-adv-x="972" d="M-27 147l183 160q89 -102 245 -102q102 0 159.5 40.5t57.5 92.5q0 40 -25 60t-75 28l-139 23q-135 23 -195.5 89.5t-60.5 151.5q0 158 108 266q123 123 355 123q116 0 201 -31t153 -100l-174 -153q-72 75 -203 75q-91 0 -138.5 -37.5t-47.5 -91.5q0 -64 98 -79l137 -23 q137 -22 197.5 -92t60.5 -185q0 -147 -114 -258q-61 -59 -160 -87.5t-211 -28.5q-265 0 -412 159z" />
<glyph unicode="t" horiz-adv-x="690" d="M117 231q0 42 8 88l104 523h-108l39 196h108l64 316h254l-64 -316h176l-39 -196h-176l-104 -525q-4 -16 -4 -38q0 -66 82 -66h92l-43 -213h-131q-113 0 -185.5 62.5t-72.5 168.5z" />
<glyph unicode="u" horiz-adv-x="1114" d="M90 285q0 46 12 116l134 666h253l-129 -649q-8 -46 -8 -70q0 -65 37.5 -99t89.5 -34q30 0 60 9t62.5 30t57.5 63.5t37 102.5l129 647h254l-211 -1067h-243l18 102q-111 -114 -281 -114q-49 0 -95.5 17t-87 51t-65 93.5t-24.5 135.5z" />
<glyph unicode="v" horiz-adv-x="960" d="M117 1067h252l75 -688l344 688h273l-584 -1067h-201z" />
<glyph unicode="w" horiz-adv-x="1472" d="M117 1067h254l37 -666l337 666h185l78 -666l290 666h269l-510 -1067h-201l-84 678l-350 -678h-205z" />
<glyph unicode="x" horiz-adv-x="1028" d="M-78 0l453 551l-242 516h293l125 -317l227 317h309l-430 -530l252 -537h-293l-133 334l-247 -334h-314z" />
<glyph unicode="y" horiz-adv-x="950" d="M-51 -391l47 229h57q53 0 84 25.5t62 85.5l67 127l-151 991h252l77 -688l342 688h269l-666 -1239q-42 -79 -88 -125q-94 -94 -254 -94h-98z" />
<glyph unicode="z" horiz-adv-x="944" d="M-27 0l39 195l568 645h-426l45 227h764l-39 -195l-572 -645h457l-45 -227h-791z" />
<glyph unicode="{" horiz-adv-x="890" d="M104 631l48 225h88q65 0 110 39q39 34 58 123l57 289q31 161 119 235q80 68 229 68h201l-45 -228h-95q-47 0 -76 -7t-47.5 -27t-28.5 -46t-20 -75l-59 -293q-19 -94 -64.5 -140t-111.5 -61q98 -48 98 -160q0 -29 -6 -59l-55 -278q-10 -55 -10 -82q0 -45 26.5 -61.5 t89.5 -16.5h117l-45 -228h-197q-69 0 -121 22t-80 59t-41.5 78t-13.5 85q0 31 9 76l61 301q12 70 -4 104q-26 58 -105 58h-86z" />
<glyph unicode="|" horiz-adv-x="681" d="M80 -152l350 1762h254l-352 -1762h-252z" />
<glyph unicode="}" horiz-adv-x="890" d="M-41 -152l45 228h94q47 0 76 7t47.5 27t28.5 46t20 75l60 293q19 94 64.5 140t111.5 61q-98 48 -98 160q0 29 6 59l55 279q10 55 10 82q0 45 -27 61t-90 16h-116l45 228h196q69 0 121 -22t80 -59t41.5 -78t13.5 -85q0 -36 -8 -76l-61 -301q-12 -70 4 -104q26 -58 104 -58 h86l-47 -225h-88q-65 0 -110 -39q-39 -34 -58 -123l-57 -288q-32 -162 -119 -236q-80 -68 -229 -68h-201z" />
<glyph unicode="~" horiz-adv-x="1179" d="M78 608q73 67 144 104.5t113 45.5t91 8q105 0 219 -66q83 -49 154 -49q48 0 93.5 17.5t100.5 68.5l131 -170q-56 -52 -108 -85.5t-96.5 -48t-75 -19t-66.5 -4.5q-107 0 -219 65q-83 49 -156 49q-97 0 -192 -88z" />
<glyph unicode="&#xa1;" horiz-adv-x="675" d="M-33 -391l258 1003h191l-135 -1003h-314zM219 795l53 272h269l-54 -272h-268z" />
<glyph unicode="&#xa2;" horiz-adv-x="991" d="M123 612q0 115 30 226.5t87.5 207t152.5 160.5t213 78l35 174h197l-35 -176q143 -32 235 -162l-186 -153q-52 73 -121 86l-121 -613q80 8 158 86l139 -170q-73 -67 -142.5 -100.5t-172.5 -48.5l-41 -207h-197l43 215q-114 28 -194 134.5t-80 262.5zM395 541 q4 -38 26 -61.5t50 -30.5l117 602q-50 -13 -94 -95.5t-70 -189.5q-37 -163 -29 -225z" />
<glyph unicode="&#xa3;" horiz-adv-x="1128" d="M92 0l123 614h-119l37 193h119l39 186q22 108 62 191t104.5 149.5t162 101.5t224.5 35q225 0 344 -153l-201 -172q-55 86 -166 86q-211 0 -264 -248l-35 -176h223l-38 -193h-222l-75 -374h581l-47 -240h-852z" />
<glyph unicode="&#xa4;" horiz-adv-x="1331" d="M68 496l28 159h135l31 154h-135l29 160h141q30 115 67.5 194t100.5 142q84 84 190 124.5t217 40.5q109 0 194.5 -34.5t139.5 -95.5t81.5 -142t27.5 -178h-271q-2 96 -48.5 154.5t-139.5 58.5q-113 0 -197 -84q-54 -54 -88 -180h291l-33 -160h-299l-30 -154h301l-29 -159 h-295q-4 -29 -4 -74q0 -92 54 -144.5t139 -52.5q93 0 164 59t108 154h279q-70 -213 -217.5 -331.5t-354.5 -118.5q-202 0 -324 117.5t-122 295.5q0 37 10 95h-141z" />
<glyph unicode="&#xa5;" horiz-adv-x="1126" d="M94 301l39 193h291l22 104l-30 102h-242l37 193h143l-172 565h287l156 -604l376 604h299l-380 -565h151l-39 -193h-241l-76 -112l-21 -94h297l-39 -193h-295l-61 -301h-270l61 301h-293z" />
<glyph unicode="&#xa6;" horiz-adv-x="688" d="M80 -152l141 717h254l-143 -717h-252zM287 893l143 717h254l-143 -717h-254z" />
<glyph unicode="&#xa7;" horiz-adv-x="1032" d="M12 -111q0 40 2 60h236q-6 -58 26 -93.5t97 -35.5q68 0 116 41t48 123q0 92 -109 137l-106 43q-93 37 -150 115t-57 188q0 129 62 237t179 166q-54 45 -79 100t-25 134q0 69 26 133.5t76 117t131.5 84t182.5 31.5q154 0 238.5 -82.5t84.5 -209.5q0 -26 -4 -50h-227 q6 65 -27 95t-90 30q-74 0 -115 -42.5t-41 -106.5q0 -42 25 -70.5t80 -50.5l108 -43q88 -36 147.5 -114.5t59.5 -188.5q0 -277 -237 -404q54 -39 82 -93.5t28 -145.5q0 -76 -25 -144t-75.5 -126t-138 -92.5t-201.5 -34.5q-141 0 -234.5 80t-93.5 212zM350 496q0 -70 38 -102 t85 -32q67 0 115 41q59 53 78 148q6 30 6 57q0 69 -37.5 101t-87.5 32q-63 0 -113 -43q-60 -53 -78 -147q-6 -30 -6 -55z" />
<glyph unicode="&#xa8;" horiz-adv-x="972" d="M307 1235l49 250h215l-49 -250h-215zM735 1235l49 250h217l-49 -250h-217z" />
<glyph unicode="&#xa9;" horiz-adv-x="1640" d="M156 729q0 143 55.5 273.5t150 225t225 150.5t273.5 56q191 0 353.5 -94.5t257 -257t94.5 -353.5q0 -143 -56 -273.5t-150.5 -225t-225 -150t-273.5 -55.5t-273.5 55.5t-225 150t-150 225t-55.5 273.5zM326 729q0 -154 70.5 -279.5t192.5 -196.5t271 -71t272 71 t194 196.5t71 279.5t-71 279.5t-194 196.5t-272 71t-271 -71t-192.5 -196.5t-70.5 -279.5zM526 729q0 181 99 281t252 100q77 0 135 -24.5t118 -75.5l-108 -109q-41 35 -71.5 48.5t-73.5 13.5q-90 0 -138.5 -62.5t-48.5 -171.5t48.5 -171t138.5 -62q43 0 73.5 13t71.5 48 l108 -108q-58 -51 -116.5 -76t-136.5 -25q-153 0 -252 100t-99 281z" />
<glyph unicode="&#xaa;" horiz-adv-x="882" d="M150 827q0 123 81 201q87 84 244 84h203l8 49q6 30 6 45q0 90 -125 90q-112 0 -182 -77l-106 137q58 56 131 84t186 28q57 0 108 -12t96.5 -38.5t72 -74t26.5 -112.5q0 -30 -8 -76l-111 -549h-196l14 74q-75 -82 -207 -82q-108 0 -174.5 64t-66.5 165zM348 846 q0 -39 28 -60.5t83 -21.5q80 0 131 51q36 36 49 107l10 51h-155q-67 0 -106.5 -36.5t-39.5 -90.5z" />
<glyph unicode="&#xab;" horiz-adv-x="1222" d="M74 565l588 502l-68 -328l-227 -196l149 -197l-55 -291zM616 565l588 502l-67 -328l-228 -196l150 -197l-55 -291z" />
<glyph unicode="&#xac;" d="M86 500l47 235h877l-109 -540h-235l61 305h-641z" />
<glyph unicode="&#xad;" horiz-adv-x="829" d="M104 467l48 235h600l-47 -235h-601z" />
<glyph unicode="&#xae;" horiz-adv-x="1640" d="M156 729q0 143 55.5 273.5t150 225t225 150.5t273.5 56q191 0 353.5 -94.5t257 -257t94.5 -353.5q0 -143 -56 -273.5t-150.5 -225t-225 -150t-273.5 -55.5t-273.5 55.5t-225 150t-150 225t-55.5 273.5zM324 729q0 -234 154 -390.5t382 -156.5q150 0 273 71t193.5 196.5 t70.5 279.5t-70.5 279.5t-193.5 196.5t-273 71q-228 0 -382 -156.5t-154 -390.5zM604 354v750h305q112 0 180 -69t68 -167q0 -73 -38 -123.5t-97 -74.5l156 -316h-191l-135 289h-80v-289h-168zM772 774h115q45 0 74.5 27t29.5 67q0 41 -29.5 70t-74.5 29h-115v-193z" />
<glyph unicode="&#xaf;" horiz-adv-x="972" d="M332 1288l33 168h618l-35 -168h-616z" />
<glyph unicode="&#xb0;" horiz-adv-x="942" d="M223 1110q0 157 104 262t261 105q156 0 260 -105t104 -262t-103.5 -261t-260.5 -104t-261 104t-104 261zM426 1110q0 -69 47 -116.5t115 -47.5t115 47.5t47 116.5t-47 116.5t-115 47.5t-115 -47.5t-47 -116.5z" />
<glyph unicode="&#xb1;" d="M-4 0l47 236h862l-47 -236h-862zM131 690l47 234h311l68 336h238l-68 -336h313l-47 -234h-313l-68 -338h-237l67 338h-311z" />
<glyph unicode="&#xb2;" horiz-adv-x="696" d="M100 584l33 164l363 346q39 38 56 67.5t17 65.5q0 76 -69 76q-85 0 -101 -95h-184q22 117 95 187.5t208 70.5q113 0 174.5 -60.5t61.5 -164.5q0 -76 -38 -135t-114 -131l-240 -227h308l-33 -164h-537z" />
<glyph unicode="&#xb3;" horiz-adv-x="714" d="M145 776q0 44 5 66h182q-6 -48 13.5 -75.5t64.5 -27.5t76.5 33.5t31.5 89.5q0 90 -80 90h-24l32 156h19q60 0 87.5 37t27.5 82q0 37 -19.5 56.5t-48.5 19.5q-84 0 -102 -93h-185q49 256 307 256q104 0 169 -63t65 -164q0 -147 -129 -213q35 -27 51.5 -64t16.5 -98 q0 -127 -85 -208t-223 -81q-126 0 -189 59t-63 142z" />
<glyph unicode="&#xb4;" horiz-adv-x="972" d="M522 1231l189 342h268l-285 -342h-172z" />
<glyph unicode="&#xb5;" horiz-adv-x="1122" d="M-47 -391l291 1458h254l-131 -649q-7 -40 -7 -70q0 -65 36.5 -99t88.5 -34q31 0 61 9t63 30t58.5 63.5t37.5 102.5l129 647h253l-213 -1067h-243l20 102q-111 -114 -280 -114q-52 0 -82 30l-82 -409h-254z" />
<glyph unicode="&#xb6;" horiz-adv-x="1302" d="M170 1030q0 82 29.5 156t89.5 136.5t162.5 99t236.5 36.5h639l-371 -1849h-251l321 1612h-195l-323 -1612h-252l211 1061q-51 4 -102 29.5t-95.5 68.5t-72 112t-27.5 150z" />
<glyph unicode="&#xb7;" horiz-adv-x="555" d="M117 440l57 289h289l-57 -289h-289z" />
<glyph unicode="&#xb8;" horiz-adv-x="972" d="M127 -416l188 293h191l-141 -293h-238z" />
<glyph unicode="&#xb9;" horiz-adv-x="569" d="M186 1092l45 219l207 147h183l-175 -874h-184l131 657z" />
<glyph unicode="&#xba;" horiz-adv-x="899" d="M184 881q0 68 17 151q24 126 58 204t93 134q106 98 262 98q51 0 100 -15t92.5 -46.5t70 -88t26.5 -130.5q0 -78 -16 -156q-23 -124 -59 -203t-95 -135q-106 -98 -260 -98q-51 0 -100 16t-92.5 48.5t-70 89.5t-26.5 131zM387 901q0 -61 28.5 -91t76.5 -30q67 0 108 45 q52 52 82 207q18 93 18 131q0 60 -29 90.5t-77 30.5q-67 0 -107 -43q-54 -54 -84 -209q-16 -82 -16 -131z" />
<glyph unicode="&#xbb;" horiz-adv-x="1222" d="M37 55l65 328l230 197l-152 198l58 289l387 -508zM580 55l65 328l227 197l-149 198l57 289l387 -508z" />
<glyph unicode="&#xbc;" horiz-adv-x="1638" d="M182 1087l43 220l213 151h183l-175 -874h-184l131 657zM258 0l946 1458h203l-946 -1458h-203zM895 123l33 172l393 579h203l-394 -579h144l26 129h177l-27 -129h68l-33 -172h-70l-22 -123h-176l26 123h-348z" />
<glyph unicode="&#xbd;" horiz-adv-x="1691" d="M182 1087l43 220l213 151h183l-175 -874h-184l131 657zM250 0l946 1458h203l-946 -1458h-203zM979 0l35 164l362 346q40 38 57 67.5t17 65.5q0 34 -17 55t-53 21q-86 0 -102 -94h-182q22 117 95 187.5t208 70.5q112 0 173.5 -61t61.5 -165q0 -76 -38 -135t-113 -131 l-242 -227h309l-32 -164h-539z" />
<glyph unicode="&#xbe;" horiz-adv-x="1714" d="M145 776q0 44 5 66h182q-6 -48 13.5 -75.5t64.5 -27.5t76.5 33.5t31.5 89.5q0 90 -80 90h-24l32 156h19q60 0 87.5 37t27.5 82q0 37 -19.5 56.5t-48.5 19.5q-84 0 -102 -93h-185q49 256 307 256q104 0 169 -63t65 -164q0 -147 -129 -213q35 -27 51.5 -64t16.5 -98 q0 -127 -85 -208t-223 -81q-126 0 -189 59t-63 142zM338 0l944 1458h205l-946 -1458h-203zM969 123l32 172l394 579h202l-393 -579h146l24 129h176l-26 -129h67l-32 -172h-68l-25 -123h-174l25 123h-348z" />
<glyph unicode="&#xbf;" horiz-adv-x="1017" d="M-35 -78q0 99 38 179.5t114 162.5l182 201q46 50 57 104l9 45h253l-14 -65q-13 -63 -37.5 -113.5t-72.5 -101.5l-183 -193q-90 -97 -90 -192q0 -53 32.5 -89t88.5 -36q80 0 130 45t65 125h254q-24 -135 -94.5 -226t-169 -131t-224.5 -40q-89 0 -165.5 37.5t-124.5 113 t-48 174.5zM387 795l53 272h267l-52 -272h-268z" />
<glyph unicode="&#xc0;" horiz-adv-x="1243" d="M-94 0l794 1458h215l215 -1458h-274l-31 266h-493l-137 -266h-289zM442 487h363l-70 562zM571 1935h263l51 -342h-162z" />
<glyph unicode="&#xc1;" horiz-adv-x="1243" d="M-94 0l794 1458h215l215 -1458h-274l-31 266h-493l-137 -266h-289zM442 487h363l-70 562zM680 1593l188 342h269l-285 -342h-172z" />
<glyph unicode="&#xc2;" horiz-adv-x="1243" d="M-94 0l794 1458h215l215 -1458h-274l-31 266h-493l-137 -266h-289zM442 487h363l-70 562zM446 1599l326 347h205l188 -347h-188l-121 193l-203 -193h-207z" />
<glyph unicode="&#xc3;" horiz-adv-x="1243" d="M-94 0l794 1458h215l215 -1458h-274l-31 266h-493l-137 -266h-289zM442 487h363l-70 562zM455 1765q57 56 110 81.5t117 25.5q84 0 158 -45q57 -35 108 -35q64 0 127 63l92 -122q-59 -56 -111 -81.5t-116 -25.5q-84 0 -158 45q-61 37 -108 37q-64 0 -127 -63z" />
<glyph unicode="&#xc4;" horiz-adv-x="1243" d="M-94 0l794 1458h215l215 -1458h-274l-31 266h-493l-137 -266h-289zM442 487h363l-70 562zM500 1597l49 250h215l-49 -250h-215zM928 1597l49 250h217l-49 -250h-217z" />
<glyph unicode="&#xc5;" horiz-adv-x="1243" d="M-94 0l794 1458h215l215 -1458h-274l-31 266h-493l-137 -266h-289zM442 487h363l-70 562zM563 1802q0 110 75 184t183 74q107 0 183.5 -74.5t76.5 -183.5q0 -111 -76.5 -185.5t-183.5 -74.5q-108 0 -183 74.5t-75 185.5zM702 1802q0 -49 35.5 -85t83.5 -36t84.5 36 t36.5 85q0 47 -37 83t-84 36t-83 -36t-36 -83z" />
<glyph unicode="&#xc6;" horiz-adv-x="1925" d="M-98 0l1016 1458h1083l-47 -235h-641l-72 -371h549l-47 -236h-551l-76 -380h649l-47 -236h-919l65 334h-434l-229 -334h-299zM586 559h325l131 662z" />
<glyph unicode="&#xc7;" horiz-adv-x="1212" d="M109 401q0 99 45 328q48 247 89.5 366.5t131.5 209.5q84 84 189.5 124.5t215.5 40.5q109 0 195 -34.5t140 -95.5t82 -142.5t28 -177.5h-271q-2 96 -48.5 154.5t-139.5 58.5q-113 0 -197 -84q-44 -44 -76 -137t-69 -283q-43 -212 -43 -307q0 -92 54.5 -144.5t139.5 -52.5 q100 0 169.5 61t103.5 152h278q-72 -221 -222 -335.5t-347 -114.5q-204 0 -326 117.5t-122 295.5zM266 -416l189 293h190l-141 -293h-238z" />
<glyph unicode="&#xc8;" horiz-adv-x="1183" d="M57 0l293 1458h910l-48 -237h-639l-73 -367h551l-47 -238h-551l-76 -378h651l-47 -238h-924zM565 1935h262l52 -342h-162z" />
<glyph unicode="&#xc9;" horiz-adv-x="1183" d="M57 0l293 1458h910l-48 -237h-639l-73 -367h551l-47 -238h-551l-76 -378h651l-47 -238h-924zM645 1593l189 342h268l-285 -342h-172z" />
<glyph unicode="&#xca;" horiz-adv-x="1183" d="M57 0l293 1458h910l-48 -237h-639l-73 -367h551l-47 -238h-551l-76 -378h651l-47 -238h-924zM426 1599l326 347h204l189 -347h-189l-120 193l-203 -193h-207z" />
<glyph unicode="&#xcb;" horiz-adv-x="1183" d="M57 0l293 1458h910l-48 -237h-639l-73 -367h551l-47 -238h-551l-76 -378h651l-47 -238h-924zM465 1597l49 250h215l-49 -250h-215zM893 1597l49 250h217l-49 -250h-217z" />
<glyph unicode="&#xcc;" horiz-adv-x="593" d="M57 0l293 1458h271l-293 -1458h-271zM279 1935h262l51 -342h-162z" />
<glyph unicode="&#xcd;" horiz-adv-x="593" d="M57 0l293 1458h271l-293 -1458h-271zM367 1593l188 342h268l-284 -342h-172z" />
<glyph unicode="&#xce;" horiz-adv-x="593" d="M57 0l293 1458h271l-293 -1458h-271zM131 1599l326 347h205l188 -347h-188l-121 193l-203 -193h-207z" />
<glyph unicode="&#xcf;" horiz-adv-x="593" d="M57 0l293 1458h271l-293 -1458h-271zM182 1597l49 250h215l-49 -250h-215zM610 1597l49 250h218l-50 -250h-217z" />
<glyph unicode="&#xd0;" horiz-adv-x="1327" d="M94 635l41 205h135l125 618h477q93 0 170 -24.5t136 -72.5t92 -127.5t33 -182.5q0 -75 -48 -316q-54 -275 -98 -389.5t-135 -202.5q-149 -143 -401 -143h-519l127 635h-135zM420 238h205q135 0 217 79q45 43 74.5 128.5t68.5 289.5q45 229 45 293q0 96 -54.5 144.5 t-150.5 48.5h-207l-77 -381h225l-41 -205h-225z" />
<glyph unicode="&#xd1;" horiz-adv-x="1386" d="M57 0l293 1458h230l381 -913l182 913h270l-293 -1458h-229l-379 911l-184 -911h-271zM520 1765q59 56 111.5 81.5t116.5 25.5q83 0 157 -45q57 -35 109 -35q64 0 127 63l92 -122q-57 -56 -110 -81.5t-117 -25.5q-84 0 -158 45q-61 37 -109 37q-64 0 -127 -63z" />
<glyph unicode="&#xd2;" horiz-adv-x="1251" d="M109 401q0 90 45 328q47 242 90.5 364.5t132.5 211.5q80 80 188 122.5t217 42.5q201 0 321 -119t120 -294q0 -104 -45 -328q-47 -240 -91 -363t-133 -212q-80 -80 -189 -123t-218 -43q-101 0 -184.5 33t-138.5 89.5t-85 131t-30 159.5zM381 422q0 -92 54 -144.5 t132 -52.5q117 0 199 88q42 45 72 131.5t69 284.5q41 205 41 307q0 93 -53 145t-131 52q-117 0 -199 -88q-42 -45 -72 -131.5t-69 -284.5q-43 -215 -43 -307zM584 1935h262l51 -342h-162z" />
<glyph unicode="&#xd3;" horiz-adv-x="1251" d="M109 401q0 90 45 328q47 242 90.5 364.5t132.5 211.5q80 80 188 122.5t217 42.5q201 0 321 -119t120 -294q0 -104 -45 -328q-47 -240 -91 -363t-133 -212q-80 -80 -189 -123t-218 -43q-101 0 -184.5 33t-138.5 89.5t-85 131t-30 159.5zM381 422q0 -92 54 -144.5 t132 -52.5q117 0 199 88q42 45 72 131.5t69 284.5q41 205 41 307q0 93 -53 145t-131 52q-117 0 -199 -88q-42 -45 -72 -131.5t-69 -284.5q-43 -215 -43 -307zM690 1593l189 342h268l-285 -342h-172z" />
<glyph unicode="&#xd4;" horiz-adv-x="1251" d="M109 401q0 90 45 328q47 242 90.5 364.5t132.5 211.5q80 80 188 122.5t217 42.5q201 0 321 -119t120 -294q0 -104 -45 -328q-47 -240 -91 -363t-133 -212q-80 -80 -189 -123t-218 -43q-101 0 -184.5 33t-138.5 89.5t-85 131t-30 159.5zM381 422q0 -92 54 -144.5 t132 -52.5q117 0 199 88q42 45 72 131.5t69 284.5q41 205 41 307q0 93 -53 145t-131 52q-117 0 -199 -88q-42 -45 -72 -131.5t-69 -284.5q-43 -215 -43 -307zM446 1599l326 347h205l188 -347h-188l-121 193l-203 -193h-207z" />
<glyph unicode="&#xd5;" horiz-adv-x="1251" d="M109 401q0 90 45 328q47 242 90.5 364.5t132.5 211.5q80 80 188 122.5t217 42.5q201 0 321 -119t120 -294q0 -104 -45 -328q-47 -240 -91 -363t-133 -212q-80 -80 -189 -123t-218 -43q-101 0 -184.5 33t-138.5 89.5t-85 131t-30 159.5zM381 422q0 -92 54 -144.5 t132 -52.5q117 0 199 88q42 45 72 131.5t69 284.5q41 205 41 307q0 93 -53 145t-131 52q-117 0 -199 -88q-42 -45 -72 -131.5t-69 -284.5q-43 -215 -43 -307zM465 1765q57 56 110 81.5t117 25.5q84 0 158 -45q57 -35 108 -35q61 0 127 63l93 -122q-59 -56 -111.5 -81.5 t-116.5 -25.5q-83 0 -157 45q-61 37 -109 37q-64 0 -127 -63z" />
<glyph unicode="&#xd6;" horiz-adv-x="1251" d="M109 401q0 90 45 328q47 242 90.5 364.5t132.5 211.5q80 80 188 122.5t217 42.5q201 0 321 -119t120 -294q0 -104 -45 -328q-47 -240 -91 -363t-133 -212q-80 -80 -189 -123t-218 -43q-101 0 -184.5 33t-138.5 89.5t-85 131t-30 159.5zM381 422q0 -92 54 -144.5 t132 -52.5q117 0 199 88q42 45 72 131.5t69 284.5q41 205 41 307q0 93 -53 145t-131 52q-117 0 -199 -88q-42 -45 -72 -131.5t-69 -284.5q-43 -215 -43 -307zM500 1597l49 250h215l-49 -250h-215zM928 1597l49 250h217l-49 -250h-217z" />
<glyph unicode="&#xd7;" d="M51 307l332 287l-219 289l186 159l217 -288l330 286l135 -176l-332 -289l220 -286l-185 -160l-217 291l-332 -289z" />
<glyph unicode="&#xd8;" horiz-adv-x="1257" d="M39 -90l154 235q-87 111 -87 256q0 85 46 328q47 242 90.5 364.5t132.5 211.5q79 79 189 122t220 43q133 0 228 -53l86 131h196l-153 -235q86 -113 86 -256q0 -90 -45 -328q-47 -240 -91 -363t-133 -212q-80 -80 -190 -123t-219 -43q-135 0 -227 53l-86 -131h-197z M381 418l500 776q-48 39 -117 39q-117 0 -199 -88q-42 -45 -72 -131.5t-69 -284.5q-43 -215 -43 -307v-4zM451 264q51 -39 116 -39q117 0 199 88q42 45 72 131.5t69 284.5q41 205 41 307v6z" />
<glyph unicode="&#xd9;" horiz-adv-x="1300" d="M127 403q0 53 14 125l187 930h270l-190 -946q-11 -69 -11 -90q0 -82 48.5 -138.5t144.5 -56.5q117 0 194.5 77t106.5 222l186 932h271l-193 -958q-52 -256 -210.5 -384t-373.5 -128q-191 0 -317.5 113t-126.5 302zM621 1935h262l51 -342h-162z" />
<glyph unicode="&#xda;" horiz-adv-x="1300" d="M127 403q0 53 14 125l187 930h270l-190 -946q-11 -69 -11 -90q0 -82 48.5 -138.5t144.5 -56.5q117 0 194.5 77t106.5 222l186 932h271l-193 -958q-52 -256 -210.5 -384t-373.5 -128q-191 0 -317.5 113t-126.5 302zM727 1593l188 342h269l-285 -342h-172z" />
<glyph unicode="&#xdb;" horiz-adv-x="1300" d="M127 403q0 53 14 125l187 930h270l-190 -946q-11 -69 -11 -90q0 -82 48.5 -138.5t144.5 -56.5q117 0 194.5 77t106.5 222l186 932h271l-193 -958q-52 -256 -210.5 -384t-373.5 -128q-191 0 -317.5 113t-126.5 302zM485 1599l326 347h205l188 -347h-188l-121 193 l-203 -193h-207z" />
<glyph unicode="&#xdc;" horiz-adv-x="1300" d="M127 403q0 53 14 125l187 930h270l-190 -946q-11 -69 -11 -90q0 -82 48.5 -138.5t144.5 -56.5q117 0 194.5 77t106.5 222l186 932h271l-193 -958q-52 -256 -210.5 -384t-373.5 -128q-191 0 -317.5 113t-126.5 302zM532 1597l50 250h215l-49 -250h-216zM961 1597l49 250 h217l-49 -250h-217z" />
<glyph unicode="&#xdd;" horiz-adv-x="1126" d="M182 1458h287l156 -604l376 604h299l-585 -870l-119 -588h-270l120 598zM604 1593l189 342h268l-285 -342h-172z" />
<glyph unicode="&#xde;" horiz-adv-x="1230" d="M57 0l293 1458h271l-56 -274h246q183 0 288 -106t105 -279q0 -99 -36 -189.5t-102 -162t-170.5 -114t-231.5 -42.5h-279l-57 -291h-271zM434 530h242q122 0 189 76t67 170q0 75 -39.5 121.5t-124.5 46.5h-250z" />
<glyph unicode="&#xdf;" horiz-adv-x="1120" d="M37 0l215 1073q22 112 67.5 190.5t112 123t145.5 64t181 19.5q167 0 268.5 -81.5t101.5 -231.5q0 -84 -43.5 -163.5t-128.5 -123.5q84 -53 84 -155q0 -28 -6 -58l-61 -327q-32 -171 -123.5 -250.5t-253.5 -79.5h-121l43 213h55q48 0 93 33q42 31 55 102l59 303q4 32 4 41 q0 84 -94 84h-63l41 199h59q67 0 106 47.5t39 110.5q0 48 -24 75q-34 43 -119 43q-102 0 -153.5 -50.5t-71.5 -147.5l-211 -1053h-256z" />
<glyph unicode="&#xe0;" horiz-adv-x="1042" d="M23 270q0 156 96 252q114 111 311 111h254l14 63q7 31 7 56q0 55 -40 84.5t-118 29.5q-140 0 -230 -100l-131 170q69 71 161.5 107t234.5 36q56 0 108 -9t102 -30.5t87 -54.5t59.5 -85t22.5 -118q0 -41 -11 -94l-139 -688h-244l19 94q-104 -104 -258 -104 q-138 0 -221.5 78.5t-83.5 201.5zM272 295q0 -46 34.5 -73t101.5 -27q100 0 165 65q47 47 64 135l12 64h-194q-84 0 -133.5 -46t-49.5 -118zM428 1573h262l51 -342h-161z" />
<glyph unicode="&#xe1;" horiz-adv-x="1042" d="M23 270q0 156 96 252q114 111 311 111h254l14 63q7 31 7 56q0 55 -40 84.5t-118 29.5q-140 0 -230 -100l-131 170q69 71 161.5 107t234.5 36q56 0 108 -9t102 -30.5t87 -54.5t59.5 -85t22.5 -118q0 -41 -11 -94l-139 -688h-244l19 94q-104 -104 -258 -104 q-138 0 -221.5 78.5t-83.5 201.5zM272 295q0 -46 34.5 -73t101.5 -27q100 0 165 65q47 47 64 135l12 64h-194q-84 0 -133.5 -46t-49.5 -118zM535 1231l188 342h268l-284 -342h-172z" />
<glyph unicode="&#xe2;" horiz-adv-x="1042" d="M23 270q0 156 96 252q114 111 311 111h254l14 63q7 31 7 56q0 55 -40 84.5t-118 29.5q-140 0 -230 -100l-131 170q69 71 161.5 107t234.5 36q56 0 108 -9t102 -30.5t87 -54.5t59.5 -85t22.5 -118q0 -41 -11 -94l-139 -688h-244l19 94q-104 -104 -258 -104 q-138 0 -221.5 78.5t-83.5 201.5zM272 295q0 -46 34.5 -73t101.5 -27q100 0 165 65q47 47 64 135l12 64h-194q-84 0 -133.5 -46t-49.5 -118zM287 1237l325 346h205l189 -346h-189l-121 193l-202 -193h-207z" />
<glyph unicode="&#xe3;" horiz-adv-x="1042" d="M23 270q0 156 96 252q114 111 311 111h254l14 63q7 31 7 56q0 55 -40 84.5t-118 29.5q-140 0 -230 -100l-131 170q69 71 161.5 107t234.5 36q56 0 108 -9t102 -30.5t87 -54.5t59.5 -85t22.5 -118q0 -41 -11 -94l-139 -688h-244l19 94q-104 -104 -258 -104 q-138 0 -221.5 78.5t-83.5 201.5zM272 295q0 -46 34.5 -73t101.5 -27q100 0 165 65q47 47 64 135l12 64h-194q-84 0 -133.5 -46t-49.5 -118zM313 1403q57 55 110 80.5t118 25.5q77 0 157 -45q53 -34 109 -34q64 0 127 63l92 -123q-59 -55 -111.5 -80.5t-115.5 -25.5 q-84 0 -158 45q-66 37 -109 37q-62 0 -126 -64z" />
<glyph unicode="&#xe4;" horiz-adv-x="1042" d="M23 270q0 156 96 252q114 111 311 111h254l14 63q7 31 7 56q0 55 -40 84.5t-118 29.5q-140 0 -230 -100l-131 170q69 71 161.5 107t234.5 36q56 0 108 -9t102 -30.5t87 -54.5t59.5 -85t22.5 -118q0 -41 -11 -94l-139 -688h-244l19 94q-104 -104 -258 -104 q-138 0 -221.5 78.5t-83.5 201.5zM272 295q0 -46 34.5 -73t101.5 -27q100 0 165 65q47 47 64 135l12 64h-194q-84 0 -133.5 -46t-49.5 -118zM336 1235l49 250h215l-49 -250h-215zM764 1235l49 250h217l-49 -250h-217z" />
<glyph unicode="&#xe5;" horiz-adv-x="1042" d="M23 270q0 156 96 252q114 111 311 111h254l14 63q7 31 7 56q0 55 -40 84.5t-118 29.5q-140 0 -230 -100l-131 170q69 71 161.5 107t234.5 36q56 0 108 -9t102 -30.5t87 -54.5t59.5 -85t22.5 -118q0 -41 -11 -94l-139 -688h-244l19 94q-104 -104 -258 -104 q-138 0 -221.5 78.5t-83.5 201.5zM272 295q0 -46 34.5 -73t101.5 -27q100 0 165 65q47 47 64 135l12 64h-194q-84 0 -133.5 -46t-49.5 -118zM424 1456q0 110 75 184t183 74t184 -73.5t76 -184.5q0 -109 -76.5 -184.5t-183.5 -75.5q-108 0 -183 75t-75 185zM563 1456 q0 -49 35.5 -85t83.5 -36t84.5 36t36.5 85t-36.5 84t-84.5 35t-83.5 -35t-35.5 -84z" />
<glyph unicode="&#xe6;" horiz-adv-x="1642" d="M23 270q0 156 92 248q111 111 315 111h254l14 63q7 28 7 60q0 55 -40 84.5t-118 29.5q-140 0 -230 -100l-131 170q69 71 161.5 107t234.5 36q206 0 299 -114q123 114 305 114q172 0 276.5 -102t104.5 -277q0 -89 -33 -243h-641q-6 -43 -6 -76q0 -81 46 -129.5t136 -48.5 q140 0 254 108l131 -168q-165 -155 -414 -155q-98 0 -184 37t-141 112q-74 -81 -160.5 -115t-192.5 -34q-160 0 -249.5 74.5t-89.5 207.5zM272 295q0 -46 34.5 -73t101.5 -27q100 0 165 65q48 48 64 133l12 64h-194q-85 0 -134 -45t-49 -117zM926 629h391q8 46 8 71 q0 81 -40.5 125.5t-110.5 44.5q-182 0 -248 -241z" />
<glyph unicode="&#xe7;" horiz-adv-x="937" d="M76 369q0 78 16 166q23 126 66.5 223t96 156.5t119 97.5t129.5 52.5t132 14.5q200 0 313 -147l-190 -168q-66 88 -148 88q-86 0 -151 -68q-84 -87 -113 -249q-14 -82 -14 -138q0 -86 39 -134t112 -48q97 0 187 90l141 -182q-145 -135 -352 -135q-162 0 -272.5 100.5 t-110.5 280.5zM147 -416l189 293h190l-141 -293h-238z" />
<glyph unicode="&#xe8;" horiz-adv-x="1073" d="M76 362q0 109 20.5 212t65 195t107 161t152.5 109t197 40q171 0 275 -104t104 -277q0 -92 -32 -241h-639q-9 -65 -9 -76q0 -81 46 -129.5t137 -48.5q140 0 254 108l133 -168q-165 -155 -416 -155q-58 0 -112.5 11.5t-106.5 39.5t-90.5 69.5t-62 107t-23.5 146.5zM358 627 h392q6 34 6 71q0 82 -41 127t-111 45q-180 0 -246 -243zM463 1573h262l51 -342h-162z" />
<glyph unicode="&#xe9;" horiz-adv-x="1073" d="M76 362q0 109 20.5 212t65 195t107 161t152.5 109t197 40q171 0 275 -104t104 -277q0 -92 -32 -241h-639q-9 -65 -9 -76q0 -81 46 -129.5t137 -48.5q140 0 254 108l133 -168q-165 -155 -416 -155q-58 0 -112.5 11.5t-106.5 39.5t-90.5 69.5t-62 107t-23.5 146.5zM358 627 h392q6 34 6 71q0 82 -41 127t-111 45q-180 0 -246 -243zM569 1231l189 342h268l-285 -342h-172z" />
<glyph unicode="&#xea;" horiz-adv-x="1073" d="M76 362q0 109 20.5 212t65 195t107 161t152.5 109t197 40q171 0 275 -104t104 -277q0 -92 -32 -241h-639q-9 -65 -9 -76q0 -81 46 -129.5t137 -48.5q140 0 254 108l133 -168q-165 -155 -416 -155q-58 0 -112.5 11.5t-106.5 39.5t-90.5 69.5t-62 107t-23.5 146.5z M317 1237l326 346h205l188 -346h-188l-121 193l-203 -193h-207zM358 627h392q6 34 6 71q0 82 -41 127t-111 45q-180 0 -246 -243z" />
<glyph unicode="&#xeb;" horiz-adv-x="1073" d="M76 362q0 109 20.5 212t65 195t107 161t152.5 109t197 40q171 0 275 -104t104 -277q0 -92 -32 -241h-639q-9 -65 -9 -76q0 -81 46 -129.5t137 -48.5q140 0 254 108l133 -168q-165 -155 -416 -155q-58 0 -112.5 11.5t-106.5 39.5t-90.5 69.5t-62 107t-23.5 146.5z M356 1235l50 250h215l-50 -250h-215zM358 627h392q6 34 6 71q0 82 -41 127t-111 45q-180 0 -246 -243zM784 1235l50 250h217l-50 -250h-217z" />
<glyph unicode="&#xec;" horiz-adv-x="536" d="M37 0l213 1067h254l-213 -1067h-254zM184 1573h262l52 -342h-162z" />
<glyph unicode="&#xed;" horiz-adv-x="536" d="M37 0l213 1067h254l-213 -1067h-254zM291 1231l188 342h269l-285 -342h-172z" />
<glyph unicode="&#xee;" horiz-adv-x="536" d="M37 0l213 1067h254l-213 -1067h-254zM39 1237l326 346h204l189 -346h-189l-120 193l-203 -193h-207z" />
<glyph unicode="&#xef;" horiz-adv-x="536" d="M37 0l213 1067h254l-213 -1067h-254zM78 1235l49 250h215l-49 -250h-215zM506 1235l49 250h217l-49 -250h-217z" />
<glyph unicode="&#xf0;" horiz-adv-x="1054" d="M86 338q0 70 23 182q31 160 72 252t112 160q80 80 201 102q84 15 153 4l-43 133h-229l35 177h143l-39 127h262l37 -127h178l-35 -177h-94l51 -161q54 -188 54 -301q0 -81 -21 -189q-13 -64 -24.5 -108.5t-33.5 -106t-55 -113.5t-77 -92q-125 -112 -316 -112 q-68 0 -129 20t-112.5 60.5t-82 110t-30.5 159.5zM340 352q0 -76 37 -107.5t88 -31.5q71 0 123 49q36 33 60 95.5t44 162.5q21 110 21 168q0 76 -36 106.5t-87 30.5q-73 0 -123 -47q-65 -60 -105 -258q-22 -116 -22 -168z" />
<glyph unicode="&#xf1;" horiz-adv-x="1114" d="M37 0l213 1067h244l-21 -102q111 114 281 114q49 0 96 -16.5t87.5 -50.5t65.5 -93t25 -135q0 -36 -14 -118l-133 -666h-254l129 649q8 46 8 70q0 65 -36.5 99t-88.5 34q-31 0 -61 -9t-62.5 -30t-58 -63.5t-37.5 -102.5l-129 -647h-254zM367 1403q57 55 109.5 80.5 t117.5 25.5q78 0 158 -45q53 -34 108 -34q64 0 127 63l92 -123q-59 -56 -111 -81t-116 -25q-84 0 -158 45q-36 20 -58 28.5t-50 8.5q-63 0 -127 -64z" />
<glyph unicode="&#xf2;" horiz-adv-x="1052" d="M76 342q0 58 22 193q30 161 74.5 256.5t116.5 164.5q126 123 327 123q51 0 100 -11.5t97 -38t84 -66t58 -100.5t22 -136q0 -63 -21 -192q-30 -162 -74 -258.5t-116 -165.5q-126 -123 -328 -123q-51 0 -100 11.5t-97 38.5t-84.5 66.5t-58.5 101t-22 136.5zM328 367 q0 -74 37 -113t98 -39q78 0 131 53q67 64 108 267q23 123 23 165q0 74 -36 113t-97 39q-80 0 -133 -53q-69 -66 -109 -264q-22 -117 -22 -168zM383 1573h262l51 -342h-161z" />
<glyph unicode="&#xf3;" horiz-adv-x="1052" d="M76 342q0 58 22 193q30 161 74.5 256.5t116.5 164.5q126 123 327 123q51 0 100 -11.5t97 -38t84 -66t58 -100.5t22 -136q0 -63 -21 -192q-30 -162 -74 -258.5t-116 -165.5q-126 -123 -328 -123q-51 0 -100 11.5t-97 38.5t-84.5 66.5t-58.5 101t-22 136.5zM328 367 q0 -74 37 -113t98 -39q78 0 131 53q67 64 108 267q23 123 23 165q0 74 -36 113t-97 39q-80 0 -133 -53q-69 -66 -109 -264q-22 -117 -22 -168zM557 1231l188 342h269l-285 -342h-172z" />
<glyph unicode="&#xf4;" horiz-adv-x="1052" d="M76 342q0 58 22 193q30 161 74.5 256.5t116.5 164.5q126 123 327 123q51 0 100 -11.5t97 -38t84 -66t58 -100.5t22 -136q0 -63 -21 -192q-30 -162 -74 -258.5t-116 -165.5q-126 -123 -328 -123q-51 0 -100 11.5t-97 38.5t-84.5 66.5t-58.5 101t-22 136.5zM305 1237 l326 346h205l188 -346h-188l-121 193l-203 -193h-207zM328 367q0 -74 37 -113t98 -39q78 0 131 53q67 64 108 267q23 123 23 165q0 74 -36 113t-97 39q-80 0 -133 -53q-69 -66 -109 -264q-22 -117 -22 -168z" />
<glyph unicode="&#xf5;" horiz-adv-x="1052" d="M76 342q0 58 22 193q30 161 74.5 256.5t116.5 164.5q126 123 327 123q51 0 100 -11.5t97 -38t84 -66t58 -100.5t22 -136q0 -63 -21 -192q-30 -162 -74 -258.5t-116 -165.5q-126 -123 -328 -123q-51 0 -100 11.5t-97 38.5t-84.5 66.5t-58.5 101t-22 136.5zM328 367 q0 -74 37 -113t98 -39q78 0 131 53q67 64 108 267q23 123 23 165q0 74 -36 113t-97 39q-80 0 -133 -53q-69 -66 -109 -264q-22 -117 -22 -168zM334 1403q57 55 109.5 80.5t117.5 25.5q78 0 158 -45q56 -34 108 -34q67 0 127 63l93 -123q-57 -55 -110 -80.5t-118 -25.5 q-83 0 -157 45q-66 37 -109 37q-63 0 -127 -64z" />
<glyph unicode="&#xf6;" horiz-adv-x="1052" d="M76 342q0 58 22 193q30 161 74.5 256.5t116.5 164.5q126 123 327 123q51 0 100 -11.5t97 -38t84 -66t58 -100.5t22 -136q0 -63 -21 -192q-30 -162 -74 -258.5t-116 -165.5q-126 -123 -328 -123q-51 0 -100 11.5t-97 38.5t-84.5 66.5t-58.5 101t-22 136.5zM328 367 q0 -74 37 -113t98 -39q78 0 131 53q67 64 108 267q23 123 23 165q0 74 -36 113t-97 39q-80 0 -133 -53q-69 -66 -109 -264q-22 -117 -22 -168zM346 1235l49 250h215l-49 -250h-215zM774 1235l49 250h217l-49 -250h-217z" />
<glyph unicode="&#xf7;" d="M78 467l47 235h879l-48 -235h-878zM313 59l52 254h251l-49 -254h-254zM465 858l51 254h254l-51 -254h-254z" />
<glyph unicode="&#xf8;" horiz-adv-x="1058" d="M-16 -90l159 215q-65 84 -65 217q0 58 22 193q30 161 74.5 256.5t116.5 164.5q126 123 330 123q116 0 202 -53l99 131h155l-159 -213q67 -87 67 -217q0 -57 -22 -192q-30 -161 -74.5 -258t-116.5 -166q-126 -123 -330 -123q-125 0 -204 55l-99 -133h-155zM330 367 q0 -3 1 -9.5t1 -9.5l352 475q-37 29 -88 29q-80 0 -133 -53q-71 -69 -111 -264q-22 -117 -22 -168zM379 244q37 -29 88 -29q80 0 133 53q71 68 111 267q22 117 22 165q0 3 -1 10.5t-1 10.5z" />
<glyph unicode="&#xf9;" horiz-adv-x="1114" d="M90 285q0 46 12 116l134 666h253l-129 -649q-8 -46 -8 -70q0 -65 37.5 -99t89.5 -34q30 0 60 9t62.5 30t57.5 63.5t37 102.5l129 647h254l-211 -1067h-243l18 102q-111 -114 -281 -114q-49 0 -95.5 17t-87 51t-65 93.5t-24.5 135.5zM467 1573h262l51 -342h-162z" />
<glyph unicode="&#xfa;" horiz-adv-x="1114" d="M90 285q0 46 12 116l134 666h253l-129 -649q-8 -46 -8 -70q0 -65 37.5 -99t89.5 -34q30 0 60 9t62.5 30t57.5 63.5t37 102.5l129 647h254l-211 -1067h-243l18 102q-111 -114 -281 -114q-49 0 -95.5 17t-87 51t-65 93.5t-24.5 135.5zM573 1231l189 342h268l-285 -342h-172 z" />
<glyph unicode="&#xfb;" horiz-adv-x="1114" d="M90 285q0 46 12 116l134 666h253l-129 -649q-8 -46 -8 -70q0 -65 37.5 -99t89.5 -34q30 0 60 9t62.5 30t57.5 63.5t37 102.5l129 647h254l-211 -1067h-243l18 102q-111 -114 -281 -114q-49 0 -95.5 17t-87 51t-65 93.5t-24.5 135.5zM322 1237l325 346h205l188 -346h-188 l-121 193l-203 -193h-206z" />
<glyph unicode="&#xfc;" horiz-adv-x="1114" d="M90 285q0 46 12 116l134 666h253l-129 -649q-8 -46 -8 -70q0 -65 37.5 -99t89.5 -34q30 0 60 9t62.5 30t57.5 63.5t37 102.5l129 647h254l-211 -1067h-243l18 102q-111 -114 -281 -114q-49 0 -95.5 17t-87 51t-65 93.5t-24.5 135.5zM365 1235l49 250h215l-49 -250h-215z M793 1235l49 250h217l-49 -250h-217z" />
<glyph unicode="&#xfd;" horiz-adv-x="950" d="M-51 -391l47 229h57q53 0 84 25.5t62 85.5l67 127l-151 991h252l77 -688l342 688h269l-666 -1239q-42 -79 -88 -125q-94 -94 -254 -94h-98zM494 1231l188 342h268l-284 -342h-172z" />
<glyph unicode="&#xfe;" horiz-adv-x="1091" d="M-41 -391l369 1849h254l-97 -479q96 100 254 100q79 0 137.5 -27t89.5 -72t45.5 -94t14.5 -102q0 -84 -33 -249q-36 -179 -73.5 -281.5t-96.5 -161.5q-104 -104 -268 -104q-174 0 -242 110l-100 -489h-254zM375 362q0 -147 127 -147q45 0 79.5 15.5t58.5 40.5t43 68 t31 87.5t25 108.5q23 126 23 170q0 147 -127 147q-56 0 -95.5 -21t-66.5 -66t-43.5 -97t-32.5 -133q-22 -121 -22 -173z" />
<glyph unicode="&#xff;" horiz-adv-x="950" d="M-51 -391l47 229h57q53 0 84 25.5t62 85.5l67 127l-151 991h252l77 -688l342 688h269l-666 -1239q-42 -79 -88 -125q-94 -94 -254 -94h-98zM295 1235l49 250h215l-49 -250h-215zM723 1235l49 250h217l-49 -250h-217z" />
<glyph unicode="&#x152;" horiz-adv-x="1880" d="M109 401q0 90 45 328q47 242 90.5 364.5t132.5 211.5q84 84 191 124.5t212 40.5q90 0 159 -32.5t105 -89.5l23 110h889l-47 -239h-637l-72 -363h547l-49 -240h-545l-76 -376h647l-47 -240h-889l19 98q-102 -110 -270 -110q-183 0 -305.5 114.5t-122.5 298.5zM381 424 q0 -92 52.5 -145.5t131.5 -53.5q117 0 199 88q42 45 72.5 131.5t70.5 284.5q43 215 43 305q0 92 -52.5 145.5t-131.5 53.5q-119 0 -201 -88q-42 -45 -71 -130.5t-70 -285.5q-43 -215 -43 -305z" />
<glyph unicode="&#x153;" horiz-adv-x="1685" d="M76 342q0 58 22 193q30 161 74.5 256.5t116.5 164.5q126 123 327 123q88 0 162.5 -34.5t120.5 -104.5q125 139 330 139q172 0 276.5 -103t104.5 -278q0 -87 -33 -241h-641q-8 -58 -8 -76q0 -81 46.5 -129.5t137.5 -48.5q138 0 252 108l133 -168q-165 -155 -414 -155 q-213 0 -311 141q-123 -141 -334 -141q-51 0 -100 11.5t-97 38.5t-84.5 66.5t-58.5 101t-22 136.5zM328 367q0 -74 37 -113t98 -39q78 0 131 53q67 64 108 267q23 123 23 165q0 74 -36 113t-97 39q-80 0 -133 -53q-69 -66 -109 -264q-22 -117 -22 -168zM969 627h391 q6 34 6 71q0 82 -41 127t-111 45q-179 0 -245 -243z" />
<glyph unicode="&#x178;" horiz-adv-x="1126" d="M182 1458h287l156 -604l376 604h299l-585 -870l-119 -588h-270l120 598zM424 1597l49 250h215l-49 -250h-215zM852 1597l49 250h217l-49 -250h-217z" />
<glyph unicode="&#x2c6;" horiz-adv-x="972" d="M270 1237l326 346h205l188 -346h-188l-121 193l-203 -193h-207z" />
<glyph unicode="&#x2dc;" horiz-adv-x="972" d="M301 1405q57 55 109.5 80.5t117.5 25.5q84 0 158 -45q56 -34 109 -34q64 0 127 63l92 -123q-57 -55 -110 -80.5t-118 -25.5q-83 0 -157 45q-61 37 -109 37q-63 0 -127 -64z" />
<glyph unicode="&#x2000;" horiz-adv-x="1030" />
<glyph unicode="&#x2001;" horiz-adv-x="2060" />
<glyph unicode="&#x2002;" horiz-adv-x="1030" />
<glyph unicode="&#x2003;" horiz-adv-x="2060" />
<glyph unicode="&#x2004;" horiz-adv-x="686" />
<glyph unicode="&#x2005;" horiz-adv-x="515" />
<glyph unicode="&#x2006;" horiz-adv-x="343" />
<glyph unicode="&#x2007;" horiz-adv-x="343" />
<glyph unicode="&#x2008;" horiz-adv-x="257" />
<glyph unicode="&#x2009;" horiz-adv-x="412" />
<glyph unicode="&#x200a;" horiz-adv-x="114" />
<glyph unicode="&#x2010;" horiz-adv-x="829" d="M104 467l48 235h600l-47 -235h-601z" />
<glyph unicode="&#x2011;" horiz-adv-x="829" d="M104 467l48 235h600l-47 -235h-601z" />
<glyph unicode="&#x2012;" horiz-adv-x="829" d="M104 467l48 235h600l-47 -235h-601z" />
<glyph unicode="&#x2013;" d="M88 467l45 235h862l-47 -235h-860z" />
<glyph unicode="&#x2014;" horiz-adv-x="1996" d="M104 469l48 244h1771l-49 -244h-1770z" />
<glyph unicode="&#x2018;" horiz-adv-x="528" d="M270 1206l49 252l308 215l-92 -467h-265z" />
<glyph unicode="&#x2019;" horiz-adv-x="528" d="M227 991l92 467h265l-49 -254z" />
<glyph unicode="&#x201a;" horiz-adv-x="528" d="M-12 -213l92 467h264l-51 -254z" />
<glyph unicode="&#x201c;" horiz-adv-x="937" d="M270 1206l49 252l308 215l-95 -467h-262zM680 1206l49 252l307 215l-94 -467h-262z" />
<glyph unicode="&#x201d;" horiz-adv-x="937" d="M227 991l92 467h265l-52 -254zM637 991l92 467h264l-51 -254z" />
<glyph unicode="&#x201e;" horiz-adv-x="937" d="M-12 -213l92 467h262l-49 -254zM395 -213l92 467h267l-52 -254z" />
<glyph unicode="&#x2022;" horiz-adv-x="960" d="M197 684q0 138 88.5 226.5t226.5 88.5t226.5 -88.5t88.5 -226.5t-88.5 -226.5t-226.5 -88.5t-226.5 88.5t-88.5 226.5z" />
<glyph unicode="&#x2026;" horiz-adv-x="1646" d="M29 0l57 279h272l-53 -279h-276zM582 0l55 279h276l-57 -279h-274zM1135 0l57 279h272l-53 -279h-276z" />
<glyph unicode="&#x202f;" horiz-adv-x="412" />
<glyph unicode="&#x2039;" horiz-adv-x="681" d="M74 565l588 502l-68 -328l-227 -196l149 -197l-55 -291z" />
<glyph unicode="&#x203a;" horiz-adv-x="681" d="M37 55l65 328l228 197l-150 198l58 289l387 -508z" />
<glyph unicode="&#x205f;" horiz-adv-x="515" />
<glyph unicode="&#x20ac;" horiz-adv-x="1331" d="M68 496l28 159h135l31 154h-135l29 160h141q30 115 67.5 194t100.5 142q84 84 190 124.5t217 40.5q109 0 194.5 -34.5t139.5 -95.5t81.5 -142t27.5 -178h-271q-2 96 -48.5 154.5t-139.5 58.5q-113 0 -197 -84q-54 -54 -88 -180h291l-33 -160h-299l-30 -154h301l-29 -159 h-295q-4 -29 -4 -74q0 -92 54 -144.5t139 -52.5q93 0 164 59t108 154h279q-70 -213 -217.5 -331.5t-354.5 -118.5q-202 0 -324 117.5t-122 295.5q0 37 10 95h-141z" />
<glyph unicode="&#x2122;" horiz-adv-x="1798" d="M240 1292l32 166h611l-31 -166h-211l-143 -708h-183l142 708h-217zM842 584l172 874h182l143 -467l334 467h189l-172 -874h-189l105 518l-217 -314h-162l-94 318l-107 -522h-184z" />
<glyph unicode="&#x25fc;" horiz-adv-x="1064" d="M0 0v1065h1065v-1065h-1065z" />
<glyph unicode="&#xfb01;" horiz-adv-x="1179" d="M68 0l168 844h-105l39 194h104l31 144q61 293 348 293h150l-43 -215h-90q-97 0 -117 -105l-25 -117h189l-39 -194h-189l-167 -844h-254zM680 0l207 1038h254l-207 -1038h-254zM926 1247l41 211h260l-41 -211h-260z" />
<glyph unicode="&#xfb02;" horiz-adv-x="1288" d="M68 0l168 840h-105l39 194h104l31 148q28 142 115.5 217.5t232.5 75.5h150l-43 -215h-90q-97 0 -117 -105l-25 -121h189l-39 -194h-189l-167 -840h-254zM733 231q0 49 8 88l228 1139h254l-228 -1136q-6 -27 -6 -46q0 -61 80 -61h105l-46 -215h-137q-113 0 -185.5 62.5 t-72.5 168.5z" />
</font>
</defs>
</svg>
