<?xml version="1.0" encoding="utf-8"?>
<!-- Generator: Adobe Illustrator 17.0.2, SVG Export Plug-In . SVG Version: 6.00 Build 0)  -->
<!DOCTYPE svg PUBLIC "-//W3C//DTD SVG 1.1//EN" "http://www.w3.org/Graphics/SVG/1.1/DTD/svg11.dtd">
<svg version="1.1" id="Layer_1" xmlns="http://www.w3.org/2000/svg" xmlns:xlink="http://www.w3.org/1999/xlink" x="0px" y="0px"
	 width="2031px" height="502.872px" viewBox="0 262.146 2031 502.872" enable-background="new 0 262.146 2031 502.872"
	 xml:space="preserve">
<g id="Layer_1_1_">
	<path fill="#23A939" d="M1389.706,366.48c0,0-0.868-13,10.751-13c0,0,34.854,0.332,53.855,0.332c0,0,9.933-1,9.933,15.002
		c0,0,2.333,61.998,83.036,124.828c0,0,15.572,11.169,17.297-14.831c0,0,0.862-82.211,1.334-113.332c0,0-2.278-14.667,11.051-14.667
		h54.862c0,0,13.42-1.999,12.171,19c0,0-2.422,209-0.474,241.821c0,0,0.059,87.367,0.055,117.511c0,0,1.332,7-7.002,7l-55.202,0.001
		c0,0-9.75,0.917-10-7.833c0,0-6.032-82.25-35.795-132.5c-16.5-23-30.665-25-30.665-25c-26.335-5.5-15.587,108.655-17.834,149.002
		c0,16.331-17.168,16-17.168,16s-6.085,0.165-42.588,0.165c-4.171,0-12.665-2.479-12.745-12.833
		C1414.578,723.146,1395.02,396.895,1389.706,366.48z"/>
	<path fill="#169EE4" d="M162.943,476.118c49.866,13.85,112.083,29.075,121.04,64.693c0,0,30.552,125.357-109.098,95.422
		c0,0-57.642-13.089-17.994-73.646c0,0,18.095-30.354,21.02-33.109c6-6.333-3-10-3-10s-108.334-38.833-113-40.5s-7.333,4-7.333,4
		S-51.087,679.81,161.141,731.268c0,0,192.044,39.983,233.38-99.125c0,0,21.503-50.156-6.482-107.513
		c0,0-32.706-65.577-110.685-66.013c0,0-58.803-1.995-14.516-71.342c0,0,34.164-47.04,90.128,55.508c0,0,2.755,6.653,9.505,1.028
		s33-28,39-33s4.732-9.203,4.732-9.203s-59.336-231.504-287.066-40.212C119.137,361.396,27.998,434.122,162.943,476.118z"/>
	<path fill="#23A939" d="M449.078,359.145c4.275-6.552,9.812-5.938,14-7c0,0,19.739-0.794,53.484-1.12
		c0,0,13.624-1.691,11.942,9.729l-9.518,83.441c-3.736,25.566,58.701,14.808,58.701,14.808
		c28.602-3.362,22.148-86.816,22.148-86.816c-2.572-12.842,9.998-16.435,9.998-16.435c12.807-7.583,88.66-4.541,101.498-1.439
		c12.838,3.104,0.717,21.581,0.717,21.581c-17.971,25.917-24.046,28.201-45.471,92.199c-15.656,44.145-45.524,252.45-45.524,252.45
		c-2.755,15.601-15.809,14.936-15.809,14.936c-18.755,0-61.785,0.665-61.785,0.665c-2.802-0.203-9.963-3.969-10.75-10.75
		c-4.281-36.859,22.527-157.596,22.527-157.596c6.877-41.432-45.06-21.67-45.06-21.67c-42.624,16.576-30.932,172.683-30.932,172.683
		c0,14.667-38.653,16.961-38.653,16.961c-39.68,0-100.275,0.372-100.275,0.372c97.747-66.265,85.386-153.353,77.357-194.557
		c0,0-10.096-43.276-4.322-71.674C413.352,469.914,429.196,389.607,449.078,359.145z"/>
	<path fill="#F29204" d="M737.578,385.812c37-41,77.782-35,77.782-35c80.01,0,83.251,89,83.251,89c10,45,3.586,280,3.586,280
		c0,14-14.24,16.333-14.24,16.333l-54.208-0.07c0,0-10.482-0.762-9.171-17.263c0,0,13.332-127.998-17-145
		c-32.034-13.544-45.285,14.023-45.285,14.023c-9.84,13.591-40.049,130.773-40.049,130.773s-2.649,15.637-11.319,16.871
		c-16.35,2.328-52.014-0.333-52.014-0.333c-8.263,0.999-8.667-10.333-8.667-10.333S664.576,454.813,737.578,385.812z
		 M796.404,440.093c-25.057,2.059-25.631,35.359-25.631,35.359s-8.191,36.36,21.869,35.166c0,0,26.606,3.86,30.799-17.002
		C823.441,493.616,839.443,439.829,796.404,440.093z"/>
	<path fill="#169EE4" d="M1381.588,510.888c0,0,13.769,186.009,8.99,211.924c0,0-1.404,13.333-9.667,12.334
		c0,0-35.162,0.938-51.666,0.333c-13.045-0.478-12.667-20.167-12.667-20.167s3.002-109.833-10.332-130.5c0,0-18.168-37-47.725-11
		c-27.443,21.5-19,145-19,145c1.312,16.501-9.171,17.263-9.171,17.263l-54.208,0.07c0,0-14.24-2.333-14.24-16.333
		c0,0,1.344-230.333-0.656-275.333c0,0-8.168-91,47.667-91l95.721-2.667c0,0,63.944-3.5,69.194,63.334
		C1373.828,414.146,1380.828,492.312,1381.588,510.888z M1246.245,482.309c4.192,20.862,30.799,17.002,30.799,17.002
		c30.061,1.194,21.869-35.166,21.869-35.166s-0.574-33.301-25.631-35.359C1230.243,428.521,1246.245,482.309,1246.245,482.309z"/>
	<path fill="#E8471D" d="M1051.542,351.144c91.74-0.582,90.486,96.497,90.486,96.497c0,67.238-35.117,82.504-35.117,82.504
		c-44,21.332,2.624,30.991,2.624,30.991c43.043,12.675,35.71,99.495,35.71,99.495c0,67.746-57.333,75.015-57.333,75.015
		c-71.601,1.415-127.583,0.499-127.583,0.499c-37.751,2.667-31.751-30.333-31.751-30.333s1.165-250.33-16.335-314.998
		c0,0-8.667-28,16.835-37.252C929.078,353.562,1020.354,351.342,1051.542,351.144z M1033.951,600.933
		c0,0-29.389-7.498-32.946,18.352c0,0-7.427,50.027,13.43,50.516c0,0,36.811,2.844,47.811-19.656
		C1062.245,650.144,1080.078,609.812,1033.951,600.933z M1029.902,421.741c0,0-27.451-6.284-29.752,20.286
		c0,0-7.817,51.94,13.497,51.361c0,0,47.764,2.091,48.431-25.075C1062.078,468.313,1069.911,427.48,1029.902,421.741z"/>
	<path fill="#E8471D" d="M1674.828,714.312c11,17.75,24.485,21.833,58.281,21.833c83.157,1.107,112.7,1.399,131.642-21.581
		c17.578-20.087,14.827-68.961,14.827-68.961c-2.501-57.957,5.25-89.791-13.75-91.791c-33.479-3.524-79.469-1.155-79.469-1.155
		s-4.76,0.53-5.045,7.187c-0.438,10.268,0.6,33.315,0,39.456c-0.611,6.263,4.326,6.2,4.326,6.2
		c36.125-8.188,36.938,23.312,36.938,23.312c-1.334,44.333-61.334,30.5-61.334,30.5c-23.834-6.666-29.666-89.5-29.666-89.5
		s-14.5-136.998,55.664-136.998c0,0,35.961,0.748,33.502,68.436c0,0,0.759,11.51,9.148,10.896l41.004-1.173
		c0,0,6.656,0.334,8.014-8.825c0,0,19.798-148.985-39.166-150.336c-43.666-1-111.965-1-111.965-1
		c-16.135,1-41.113,2.241-54.126,35.741c-10.25,25.5-11.409,64.935-11.409,145.511c0,0-0.666,82.998,2.353,130.248
		C1664.597,662.312,1664.56,693.562,1674.828,714.312z"/>
	<path fill="#20BA6F" stroke="#1FBA80" stroke-width="2" d="M1541.458,379.021"/>
	<path fill="#169EE4" d="M1969.043,646.764c0,0-41.525-7.962-59.461,32.111c0,0-22.387,40.111,26.668,56.18
		c0,0,52.844,11.908,66.405-32.8C2002.655,702.255,2011.52,660.005,1969.043,646.764z"/>
	<path fill="#169EE4" d="M2002.981,351.615c8.925,1.048,8.055,13.196,8.055,13.196c-17.297,77.66-10.457,245-10.457,245
		c0,8-8.521,5.185-8.521,5.185l-69.73,0.065c-6.498-1-3.998-8.75-3.998-8.75c17.006-95.424-9.938-241.783-9.938-241.783
		c-2.984-15.512,16.418-13.482,16.418-13.482L2002.981,351.615z"/>
	<path fill="#20BA6F" d="M1136.078,715.562"/>
	<path fill="#20BA6F" d="M1315.909,262.146"/>
</g>
<g id="Layer_2">
</g>
</svg>
