<?xml version="1.0" encoding="utf-8"?>
<!-- Generator: Adobe Illustrator 17.0.2, SVG Export Plug-In . SVG Version: 6.00 Build 0)  -->
<!DOCTYPE svg PUBLIC "-//W3C//DTD SVG 1.1//EN" "http://www.w3.org/Graphics/SVG/1.1/DTD/svg11.dtd">
<svg version="1.1" id="Layer_1" xmlns="http://www.w3.org/2000/svg" xmlns:xlink="http://www.w3.org/1999/xlink" x="0px" y="0px"
	 width="100px" height="100px" viewBox="0 0 100 100" enable-background="new 0 0 100 100" xml:space="preserve">
<g id="Layer_1_1_">
	<path fill="#29A94A" d="M64.512,47.146c0,0-0.033-0.499,0.413-0.499c0,0,1.338,0.013,2.067,0.013c0,0,0.381-0.038,0.381,0.576
		c0,0,0.09,2.38,3.187,4.791c0,0,0.598,0.429,0.664-0.569c0,0,0.033-3.156,0.051-4.35c0,0-0.087-0.563,0.424-0.563h2.106
		c0,0,0.515-0.077,0.467,0.729c0,0-0.093,8.022-0.018,9.282c0,0,0.002,3.354,0.002,4.511c0,0,0.051,0.269-0.269,0.269l-2.119,0
		c0,0-0.374,0.035-0.384-0.301c0,0-0.232-3.157-1.374-5.086c-0.633-0.883-1.177-0.96-1.177-0.96
		c-1.011-0.211-0.598,4.171-0.685,5.719c0,0.627-0.659,0.614-0.659,0.614s-0.234,0.006-1.635,0.006c-0.16,0-0.486-0.095-0.489-0.493
		C65.467,60.836,64.716,48.313,64.512,47.146z"/>
	<path fill="#2F9CD7" d="M17.424,51.354c1.914,0.532,4.302,1.116,4.646,2.483c0,0,1.173,4.812-4.188,3.663
		c0,0-2.213-0.502-0.691-2.827c0,0,0.695-1.165,0.807-1.271c0.23-0.243-0.115-0.384-0.115-0.384s-4.158-1.491-4.337-1.555
		c-0.179-0.064-0.281,0.154-0.281,0.154s-4.056,7.555,4.09,9.53c0,0,7.372,1.535,8.958-3.805c0,0,0.825-1.925-0.249-4.127
		c0,0-1.255-2.517-4.249-2.534c0,0-2.257-0.077-0.557-2.738c0,0,1.311-1.806,3.46,2.131c0,0,0.106,0.255,0.365,0.039
		c0.259-0.216,1.267-1.075,1.497-1.267s0.182-0.353,0.182-0.353s-2.278-8.886-11.019-1.544
		C15.742,46.951,12.244,49.742,17.424,51.354z"/>
	<path fill="#29A94A" d="M28.407,46.864c0.164-0.251,0.377-0.228,0.537-0.269c0,0,0.758-0.03,2.053-0.043
		c0,0,0.523-0.065,0.458,0.373l-0.365,3.203c-0.143,0.981,2.253,0.568,2.253,0.568c1.098-0.129,0.85-3.332,0.85-3.332
		c-0.099-0.493,0.384-0.631,0.384-0.631c0.492-0.291,3.403-0.174,3.896-0.055c0.493,0.119,0.028,0.828,0.028,0.828
		c-0.69,0.995-0.923,1.082-1.745,3.539c-0.601,1.694-1.747,9.69-1.747,9.69c-0.106,0.599-0.607,0.573-0.607,0.573
		c-0.72,0-2.372,0.026-2.372,0.026c-0.108-0.008-0.382-0.152-0.413-0.413c-0.164-1.415,0.865-6.049,0.865-6.049
		c0.264-1.59-1.73-0.832-1.73-0.832c-1.636,0.636-1.187,6.628-1.187,6.628c0,0.563-1.484,0.651-1.484,0.651
		c-1.523,0-3.849,0.014-3.849,0.014c3.752-2.544,3.277-5.886,2.969-7.468c0,0-0.388-1.661-0.166-2.751
		C27.036,51.116,27.644,48.034,28.407,46.864z"/>
	<path fill="#F19320" d="M39.481,47.888c1.42-1.574,2.986-1.343,2.986-1.343c3.071,0,3.196,3.416,3.196,3.416
		c0.384,1.727,0.138,10.748,0.138,10.748c0,0.537-0.547,0.627-0.547,0.627l-2.081-0.003c0,0-0.402-0.029-0.352-0.663
		c0,0,0.512-4.913-0.653-5.566c-1.23-0.52-1.738,0.538-1.738,0.538c-0.378,0.522-1.537,5.02-1.537,5.02s-0.102,0.6-0.434,0.648
		c-0.628,0.089-1.997-0.013-1.997-0.013c-0.317,0.038-0.333-0.397-0.333-0.397S36.679,50.537,39.481,47.888z M41.739,49.972
		c-0.962,0.079-0.984,1.357-0.984,1.357s-0.314,1.396,0.839,1.35c0,0,1.021,0.148,1.182-0.653
		C42.777,52.026,43.391,49.961,41.739,49.972z"/>
	<path fill="#2F9CD7" d="M64.201,52.689c0,0,0.529,7.14,0.345,8.135c0,0-0.054,0.512-0.371,0.473c0,0-1.35,0.036-1.983,0.013
		c-0.501-0.018-0.486-0.774-0.486-0.774s0.115-4.216-0.397-5.009c0,0-0.697-1.42-1.832-0.422c-1.053,0.825-0.729,5.566-0.729,5.566
		c0.05,0.633-0.352,0.663-0.352,0.663l-2.081,0.003c0,0-0.547-0.09-0.547-0.627c0,0,0.052-8.841-0.025-10.569
		c0,0-0.314-3.493,1.83-3.493l3.674-0.102c0,0,2.454-0.134,2.656,2.431C63.903,48.976,64.172,51.976,64.201,52.689z M59.006,51.592
		c0.161,0.801,1.182,0.653,1.182,0.653c1.154,0.046,0.839-1.35,0.839-1.35s-0.022-1.278-0.984-1.357
		C58.392,49.527,59.006,51.592,59.006,51.592z"/>
	<path fill="#E74925" d="M51.532,46.557c3.521-0.022,3.473,3.704,3.473,3.704c0,2.581-1.348,3.167-1.348,3.167
		c-1.689,0.819,0.101,1.19,0.101,1.19c1.652,0.487,1.371,3.819,1.371,3.819c0,2.6-2.201,2.879-2.201,2.879
		c-2.748,0.054-4.897,0.019-4.897,0.019c-1.449,0.102-1.219-1.164-1.219-1.164s0.045-9.609-0.627-12.091c0,0-0.333-1.075,0.646-1.43
		C46.831,46.65,50.335,46.565,51.532,46.557z M50.857,56.145c0,0-1.128-0.288-1.265,0.704c0,0-0.285,1.92,0.516,1.939
		c0,0,1.413,0.109,1.835-0.754C51.943,58.034,52.628,56.486,50.857,56.145z M50.702,49.267c0,0-1.054-0.241-1.142,0.779
		c0,0-0.3,1.994,0.518,1.971c0,0,1.833,0.08,1.859-0.962C51.937,51.055,52.237,49.487,50.702,49.267z"/>
	<path fill="#E74925" d="M75.457,60.497c0.422,0.681,0.94,0.838,2.237,0.838c3.192,0.042,4.326,0.054,5.053-0.828
		c0.675-0.771,0.569-2.647,0.569-2.647c-0.096-2.225,0.202-3.447-0.528-3.523c-1.285-0.135-3.05-0.044-3.05-0.044
		s-0.183,0.02-0.194,0.276c-0.017,0.394,0.023,1.279,0,1.514c-0.023,0.24,0.166,0.238,0.166,0.238
		c1.387-0.314,1.418,0.895,1.418,0.895c-0.051,1.702-2.354,1.171-2.354,1.171c-0.915-0.256-1.139-3.435-1.139-3.435
		s-0.557-5.259,2.137-5.259c0,0,1.38,0.029,1.286,2.627c0,0,0.029,0.442,0.351,0.418l1.574-0.045c0,0,0.255,0.013,0.308-0.339
		c0,0,0.76-5.719-1.503-5.771c-1.676-0.038-4.298-0.038-4.298-0.038c-0.619,0.038-1.578,0.086-2.078,1.372
		c-0.393,0.979-0.438,2.492-0.438,5.585c0,0-0.026,3.186,0.09,5C75.064,58.501,75.063,59.701,75.457,60.497z"/>
	<path fill="#30B66F" stroke="#2BB780" stroke-width="2" d="M70.337,47.627"/>
	<path fill="#2F9CD7" d="M86.75,57.905c0,0-1.594-0.306-2.282,1.233c0,0-0.859,1.54,1.024,2.156c0,0,2.028,0.457,2.549-1.259
		C88.04,60.035,88.38,58.413,86.75,57.905z"/>
	<path fill="#2F9CD7" d="M88.053,46.575c0.343,0.04,0.309,0.507,0.309,0.507c-0.664,2.981-0.401,9.404-0.401,9.404
		c0,0.307-0.327,0.199-0.327,0.199l-2.677,0.002c-0.249-0.038-0.153-0.336-0.153-0.336c0.653-3.663-0.381-9.281-0.381-9.281
		c-0.115-0.595,0.63-0.517,0.63-0.517L88.053,46.575z"/>
	<path fill="#30B66F" d="M54.777,60.545"/>
	<path fill="#30B66F" d="M61.68,43.141"/>
</g>
<g id="Layer_2">
</g>
<line fill="#5D5E5E" stroke="#E74925" stroke-miterlimit="10" x1="50.639" y1="60.545" x2="50.639" y2="76.922"/>
<circle fill="#E74925" cx="50.625" cy="77.75" r="1.659"/>
</svg>
